<svg id="svg" xmlns="http://www.w3.org/2000/svg" xmlns:xlink="http://www.w3.org/1999/xlink" width="400" height="400" viewBox="0, 0, 400,400" version="1.1"><g id="svgg"><path id="path0" d="M210.547 6.601 C 209.755 7.515,208.678 9.715,208.362 11.067 C 208.219 11.675,207.862 12.265,207.567 12.378 C 207.272 12.491,207.031 12.916,207.031 13.323 C 207.031 13.730,206.875 14.063,206.684 14.063 C 206.493 14.063,206.217 14.703,206.070 15.486 C 205.923 16.269,205.552 17.160,205.245 17.467 C 204.938 17.774,204.688 18.369,204.688 18.790 C 204.688 19.211,204.424 19.657,204.102 19.781 C 203.779 19.904,203.516 20.326,203.516 20.717 C 203.516 21.108,203.282 21.663,202.996 21.949 C 202.710 22.235,202.351 22.965,202.199 23.571 C 202.047 24.178,201.503 25.338,200.991 26.149 C 200.479 26.960,199.864 28.352,199.624 29.242 C 199.385 30.131,199.020 30.859,198.813 30.859 C 198.607 30.859,198.438 31.102,198.438 31.397 C 198.438 31.693,198.188 32.143,197.882 32.397 C 197.577 32.650,197.210 33.550,197.067 34.395 C 196.924 35.241,196.665 36.021,196.491 36.129 C 195.961 36.456,194.531 39.430,194.531 40.205 C 194.531 40.605,194.277 41.029,193.967 41.149 C 193.656 41.268,193.285 41.990,193.142 42.753 C 192.999 43.516,192.726 44.141,192.535 44.141 C 192.344 44.141,192.188 44.453,192.188 44.835 C 192.188 45.217,191.880 45.815,191.504 46.164 C 189.965 47.592,189.063 48.778,189.063 49.371 C 189.063 49.717,188.912 50.000,188.727 50.000 C 188.543 50.000,188.226 50.747,188.024 51.660 C 187.815 52.598,187.452 53.278,187.187 53.223 C 186.929 53.169,186.719 53.507,186.719 53.973 C 186.719 54.440,186.480 55.099,186.189 55.438 C 183.724 58.306,185.354 65.661,189.251 69.250 C 189.899 69.847,190.787 70.682,191.225 71.105 C 191.662 71.529,192.221 71.875,192.466 71.875 C 192.712 71.875,193.166 72.129,193.476 72.438 C 194.189 73.151,198.306 75.391,198.904 75.391 C 199.151 75.391,199.630 75.629,199.969 75.920 C 201.825 77.514,216.263 79.831,218.750 78.934 C 218.857 78.895,220.238 78.801,221.819 78.726 C 223.399 78.651,224.885 78.397,225.120 78.162 C 225.355 77.927,225.943 77.734,226.427 77.734 C 226.911 77.734,227.711 77.577,228.204 77.385 C 232.495 75.716,234.626 74.755,235.176 74.240 C 235.533 73.906,236.380 73.194,237.058 72.657 C 237.736 72.120,238.398 71.329,238.530 70.899 C 238.661 70.469,239.095 69.806,239.493 69.427 C 240.496 68.470,241.623 64.514,241.055 63.945 C 240.818 63.709,240.625 63.126,240.625 62.649 C 240.625 62.172,240.370 61.284,240.059 60.676 C 239.367 59.324,238.947 58.199,238.846 57.422 C 238.650 55.929,235.221 47.967,234.668 47.721 C 234.507 47.650,234.375 47.352,234.375 47.059 C 234.375 46.766,233.721 45.418,232.921 44.064 C 232.122 42.710,231.514 41.382,231.571 41.113 C 231.628 40.845,231.385 40.625,231.030 40.625 C 230.634 40.625,230.467 40.411,230.598 40.071 C 230.714 39.767,230.557 39.421,230.249 39.302 C 229.940 39.184,229.688 38.790,229.688 38.428 C 229.688 38.066,229.248 37.193,228.711 36.489 C 228.174 35.785,227.734 35.088,227.734 34.940 C 227.734 34.793,226.768 33.052,225.586 31.072 C 224.404 29.091,223.438 27.267,223.438 27.017 C 223.438 26.767,223.262 26.563,223.047 26.563 C 222.832 26.563,222.656 26.346,222.656 26.080 C 222.656 25.619,220.720 21.500,220.312 21.094 C 220.204 20.986,219.853 20.376,219.531 19.738 C 219.209 19.100,218.638 18.265,218.262 17.883 C 217.886 17.500,217.578 16.924,217.578 16.602 C 217.578 16.279,217.402 16.016,217.188 16.016 C 216.973 16.016,216.797 15.746,216.797 15.416 C 216.797 15.086,216.503 14.367,216.143 13.818 C 215.438 12.742,214.997 11.991,212.891 8.278 C 211.389 5.631,211.388 5.630,210.547 6.601 M318.253 40.270 C 317.873 40.492,317.258 40.733,316.886 40.806 C 316.027 40.974,312.913 42.130,311.997 42.620 C 311.613 42.826,309.855 43.441,308.091 43.987 C 305.424 44.812,300.698 46.552,297.070 48.043 C 296.641 48.219,294.971 48.763,293.359 49.252 C 291.748 49.741,290.166 50.270,289.844 50.427 C 288.836 50.921,285.009 52.434,284.584 52.507 C 284.362 52.545,283.784 52.794,283.301 53.060 C 282.817 53.326,282.422 53.428,282.422 53.286 C 282.422 53.145,282.154 53.252,281.826 53.523 C 281.499 53.795,281.134 53.920,281.015 53.801 C 280.896 53.682,279.558 54.097,278.041 54.722 C 276.524 55.348,274.956 55.859,274.556 55.859 C 274.156 55.859,273.828 56.023,273.828 56.224 C 273.828 56.424,273.433 56.699,272.949 56.834 C 272.466 56.970,271.719 57.223,271.289 57.398 C 270.859 57.572,270.016 57.913,269.415 58.154 C 268.814 58.396,267.977 58.594,267.554 58.594 C 267.132 58.594,266.481 58.751,266.108 58.942 C 265.735 59.134,264.932 59.488,264.325 59.729 C 262.952 60.274,263.139 60.996,264.764 61.417 C 265.443 61.593,266.433 62.172,266.966 62.704 C 267.498 63.236,268.284 63.672,268.713 63.672 C 269.142 63.672,269.633 63.901,269.805 64.181 C 269.977 64.461,270.732 64.994,271.484 65.364 C 273.323 66.269,274.185 66.826,275.366 67.871 C 275.912 68.354,276.501 68.750,276.675 68.750 C 277.112 68.750,281.692 71.916,282.467 72.754 C 282.815 73.130,283.289 73.438,283.520 73.438 C 283.751 73.438,284.178 73.777,284.468 74.191 C 284.758 74.606,285.471 75.064,286.053 75.210 C 286.634 75.356,287.109 75.725,287.109 76.031 C 287.109 76.337,287.414 76.704,287.787 76.847 C 288.441 77.098,290.170 78.549,291.987 80.371 C 292.469 80.854,293.023 81.250,293.219 81.250 C 293.415 81.250,294.582 82.217,295.812 83.398 C 297.042 84.580,298.154 85.547,298.284 85.547 C 298.414 85.547,298.866 85.986,299.289 86.523 C 299.711 87.061,300.296 87.500,300.588 87.500 C 300.880 87.500,301.228 87.843,301.361 88.261 C 301.494 88.680,301.929 89.126,302.329 89.253 C 302.728 89.380,303.319 89.872,303.642 90.347 C 303.965 90.822,305.650 92.702,307.388 94.524 C 309.125 96.347,310.547 97.973,310.547 98.138 C 310.547 98.303,310.887 98.438,311.302 98.438 C 311.870 98.438,312.052 98.171,312.038 97.363 C 312.027 96.772,312.378 94.883,312.817 93.164 C 313.256 91.445,313.619 89.424,313.623 88.672 C 313.627 87.920,313.814 86.697,314.038 85.953 C 314.262 85.210,314.297 84.454,314.116 84.273 C 313.935 84.091,314.106 82.502,314.495 80.741 C 316.059 73.673,316.507 71.139,316.293 70.580 C 316.169 70.257,316.308 69.082,316.602 67.969 C 316.895 66.855,317.050 65.720,316.945 65.446 C 316.839 65.173,317.134 63.475,317.599 61.673 C 318.384 58.631,318.836 55.374,318.777 53.185 C 318.764 52.681,319.110 50.869,319.547 49.157 C 319.984 47.446,320.404 45.222,320.481 44.214 C 320.558 43.207,320.749 41.812,320.906 41.113 C 321.217 39.732,319.898 39.313,318.253 40.270 M176.010 52.245 C 175.885 52.370,175.062 52.444,174.180 52.409 C 173.299 52.375,172.376 52.476,172.129 52.635 C 171.882 52.794,171.328 52.953,170.898 52.987 C 168.634 53.170,165.773 53.659,165.430 53.923 C 165.215 54.088,164.424 54.225,163.672 54.226 C 162.920 54.228,161.815 54.418,161.217 54.649 C 160.619 54.880,160.003 55.042,159.850 55.010 C 159.422 54.918,157.330 55.480,156.374 55.942 C 155.905 56.168,155.246 56.248,154.909 56.119 C 154.572 55.990,154.297 56.054,154.297 56.262 C 154.297 56.470,153.868 56.641,153.343 56.641 C 152.819 56.641,152.279 56.819,152.144 57.038 C 152.010 57.256,151.743 57.338,151.551 57.220 C 151.360 57.101,150.845 57.187,150.407 57.409 C 149.968 57.631,149.260 57.988,148.833 58.203 C 148.407 58.418,147.714 58.594,147.294 58.594 C 146.874 58.594,146.422 58.770,146.289 58.984 C 146.156 59.199,145.612 59.375,145.080 59.375 C 144.548 59.375,143.680 59.659,143.150 60.006 C 142.621 60.353,142.188 60.541,142.188 60.423 C 142.188 60.306,141.177 60.621,139.941 61.124 C 136.931 62.349,137.716 63.222,142.383 63.839 C 144.902 64.172,153.745 66.548,154.328 67.048 C 154.667 67.340,155.072 67.578,155.228 67.578 C 155.384 67.578,156.255 67.917,157.164 68.331 C 158.073 68.745,159.337 69.208,159.974 69.360 C 160.612 69.512,161.396 69.861,161.719 70.137 C 162.041 70.412,162.966 70.760,163.774 70.910 C 164.582 71.060,165.339 71.338,165.457 71.528 C 165.750 72.003,169.665 73.828,170.391 73.828 C 170.715 73.828,171.437 74.252,171.996 74.770 C 172.555 75.288,173.586 75.838,174.289 75.992 C 174.991 76.146,176.273 76.729,177.138 77.286 C 179.362 78.720,180.483 79.297,181.046 79.297 C 181.314 79.297,182.197 79.824,183.008 80.469 C 183.819 81.113,184.818 81.641,185.228 81.641 C 185.638 81.641,186.397 82.064,186.915 82.582 C 187.433 83.100,188.392 83.642,189.045 83.785 C 189.699 83.929,190.234 84.208,190.234 84.406 C 190.234 84.604,190.479 84.766,190.779 84.766 C 191.078 84.766,191.424 85.029,191.548 85.352 C 191.671 85.674,192.129 85.938,192.566 85.938 C 193.002 85.938,193.359 86.094,193.359 86.286 C 193.359 86.477,193.799 86.744,194.336 86.879 C 194.873 87.014,195.313 87.297,195.313 87.507 C 195.313 87.718,195.501 87.891,195.731 87.891 C 195.961 87.891,196.413 88.154,196.735 88.477 C 197.058 88.799,197.630 89.062,198.007 89.063 C 198.384 89.063,199.105 89.502,199.609 90.039 C 200.114 90.576,200.732 91.016,200.984 91.016 C 201.235 91.016,201.941 91.445,202.552 91.970 C 203.163 92.496,204.289 93.243,205.054 93.631 C 205.819 94.019,206.832 94.731,207.306 95.215 C 207.779 95.698,208.531 96.094,208.978 96.094 C 209.425 96.094,209.895 96.367,210.023 96.701 C 210.151 97.035,211.025 97.670,211.964 98.111 C 212.903 98.553,213.672 99.071,213.672 99.263 C 213.672 99.455,214.377 99.917,215.238 100.290 C 216.099 100.663,216.902 101.278,217.022 101.656 C 217.142 102.034,217.465 102.344,217.739 102.344 C 218.013 102.344,218.749 102.783,219.373 103.320 C 219.997 103.857,220.733 104.296,221.008 104.296 C 221.284 104.297,221.610 104.561,221.734 104.883 C 221.857 105.205,222.176 105.469,222.442 105.469 C 222.708 105.469,223.244 105.820,223.633 106.250 C 224.022 106.680,224.564 107.031,224.837 107.031 C 225.110 107.031,225.680 107.471,226.102 108.008 C 226.525 108.545,227.116 108.984,227.416 108.984 C 227.717 108.984,228.614 109.600,229.412 110.352 C 230.209 111.104,231.005 111.719,231.180 111.719 C 231.356 111.719,231.882 112.158,232.349 112.695 C 232.816 113.232,233.400 113.672,233.648 113.672 C 233.895 113.672,234.468 114.022,234.920 114.449 C 236.990 116.406,237.954 117.188,238.299 117.188 C 238.504 117.188,238.672 117.363,238.672 117.578 C 238.672 117.793,238.904 117.969,239.187 117.969 C 239.471 117.969,240.074 118.364,240.527 118.848 C 241.533 119.919,242.063 120.351,243.565 121.320 C 244.204 121.733,245.138 122.554,245.640 123.145 C 246.143 123.735,246.706 124.219,246.892 124.219 C 247.078 124.219,247.648 124.614,248.160 125.098 C 248.671 125.581,249.761 126.504,250.581 127.148 C 251.402 127.793,252.478 128.716,252.972 129.199 C 253.466 129.683,254.014 130.078,254.188 130.078 C 254.363 130.078,255.331 130.869,256.340 131.836 C 257.349 132.803,258.326 133.594,258.512 133.594 C 258.697 133.594,259.362 134.209,259.988 134.961 C 260.615 135.713,261.343 136.328,261.605 136.328 C 261.867 136.328,262.270 136.680,262.500 137.109 C 262.730 137.539,263.111 137.891,263.348 137.891 C 263.584 137.891,264.189 138.286,264.693 138.770 C 267.542 141.507,268.228 142.092,268.848 142.311 C 269.224 142.445,269.531 142.823,269.531 143.152 C 269.531 143.481,269.683 143.750,269.868 143.750 C 270.178 143.750,272.569 145.817,276.196 149.219 C 281.090 153.810,282.031 154.758,282.031 155.094 C 282.031 155.300,282.220 155.469,282.450 155.469 C 282.918 155.469,297.751 170.366,300.195 173.291 C 301.055 174.319,302.953 176.375,304.415 177.860 C 305.876 179.344,306.991 180.639,306.892 180.738 C 306.793 180.837,307.487 181.671,308.434 182.591 C 309.381 183.512,310.156 184.377,310.156 184.515 C 310.156 184.653,310.464 185.087,310.840 185.480 C 311.216 185.872,312.227 187.033,313.086 188.060 C 313.945 189.086,314.912 190.202,315.234 190.540 C 315.557 190.878,315.820 191.260,315.820 191.388 C 315.820 191.614,316.352 192.298,317.593 193.671 C 317.924 194.037,318.659 195.061,319.226 195.947 C 319.794 196.833,320.710 198.045,321.262 198.640 C 321.814 199.236,322.266 199.967,322.266 200.265 C 322.266 200.562,322.519 200.903,322.829 201.022 C 323.409 201.245,326.563 206.008,326.563 206.663 C 326.563 206.866,326.738 207.031,326.953 207.031 C 327.168 207.031,327.344 207.276,327.344 207.575 C 327.344 207.875,327.575 208.208,327.858 208.317 C 328.484 208.557,332.422 215.292,332.422 216.122 C 332.422 216.447,332.697 216.819,333.033 216.948 C 333.368 217.077,333.543 217.345,333.420 217.544 C 333.297 217.743,333.418 218.140,333.689 218.426 C 334.187 218.951,334.652 219.846,336.552 223.933 C 338.184 227.446,338.628 226.981,339.451 220.898 C 339.654 219.395,339.985 217.606,340.187 216.924 C 340.389 216.241,340.495 214.713,340.424 213.527 C 340.352 212.342,340.528 210.483,340.815 209.397 C 341.101 208.311,341.199 207.422,341.032 207.422 C 340.865 207.422,340.784 206.675,340.851 205.762 C 341.080 202.673,341.094 193.411,340.870 193.049 C 340.748 192.851,340.803 192.149,340.992 191.489 C 341.414 190.019,340.653 188.639,339.788 189.306 C 339.208 189.754,335.316 191.009,333.896 191.206 C 329.412 191.828,329.023 191.817,325.604 190.980 C 323.255 190.405,321.758 189.808,321.138 189.198 C 320.625 188.694,320.047 188.281,319.852 188.281 C 319.452 188.281,319.531 188.340,315.820 185.276 C 312.734 182.728,311.359 181.282,311.340 180.566 C 311.334 180.298,311.064 180.078,310.742 180.078 C 310.420 180.078,310.156 179.745,310.156 179.339 C 310.156 178.932,309.893 178.498,309.570 178.374 C 309.248 178.251,308.987 177.924,308.990 177.649 C 308.994 177.374,308.527 176.182,307.954 175.000 C 307.380 173.818,306.780 172.500,306.620 172.070 C 306.460 171.641,306.118 170.728,305.861 170.043 C 305.604 169.358,305.509 168.611,305.649 168.383 C 305.790 168.155,305.732 167.969,305.520 167.969 C 305.308 167.969,305.013 167.000,304.865 165.815 C 304.717 164.631,304.445 163.568,304.261 163.454 C 304.077 163.340,304.030 162.487,304.157 161.558 C 304.299 160.528,304.225 159.767,303.969 159.609 C 303.739 159.467,303.639 159.116,303.749 158.830 C 303.859 158.545,304.010 156.836,304.084 155.034 C 304.333 149.033,304.508 147.780,305.193 147.095 C 305.559 146.728,305.859 146.233,305.859 145.994 C 305.859 145.385,307.414 142.239,307.846 141.971 C 308.043 141.850,308.203 141.440,308.203 141.061 C 308.203 140.681,308.643 139.958,309.180 139.453 C 309.717 138.949,310.160 138.347,310.165 138.116 C 310.206 136.146,316.653 131.821,320.898 130.914 C 323.507 130.357,324.030 128.089,321.858 126.747 C 321.646 126.616,321.580 126.334,321.712 126.120 C 321.844 125.907,321.698 125.435,321.388 125.073 C 321.078 124.711,320.236 123.359,319.517 122.070 C 318.798 120.781,317.930 119.523,317.588 119.275 C 317.245 119.027,316.451 117.840,315.822 116.638 C 315.193 115.437,314.530 114.453,314.348 114.453 C 314.165 114.453,314.108 114.304,314.221 114.122 C 314.333 113.940,313.938 113.281,313.342 112.658 C 312.746 112.034,311.851 110.852,311.354 110.032 C 310.857 109.212,309.505 107.388,308.350 105.978 C 307.195 104.569,306.250 103.295,306.250 103.147 C 306.250 102.882,299.878 96.055,298.573 94.922 C 298.201 94.600,297.360 93.740,296.703 93.012 C 296.045 92.283,295.278 91.492,294.996 91.254 C 294.715 91.015,293.547 89.897,292.402 88.770 C 291.256 87.642,290.215 86.719,290.088 86.719 C 289.961 86.719,289.042 85.938,288.046 84.983 C 287.050 84.029,285.641 82.966,284.915 82.621 C 284.188 82.277,283.594 81.818,283.594 81.602 C 283.594 81.387,282.979 80.953,282.227 80.639 C 281.475 80.325,280.859 79.806,280.859 79.487 C 280.859 79.168,280.516 78.906,280.096 78.906 C 279.676 78.906,278.893 78.467,278.356 77.930 C 277.819 77.393,277.195 76.953,276.971 76.953 C 276.746 76.953,276.563 76.786,276.563 76.581 C 276.563 76.376,275.931 75.909,275.159 75.543 C 274.388 75.177,273.666 74.641,273.555 74.353 C 273.444 74.064,273.082 73.828,272.749 73.828 C 272.416 73.828,271.568 73.389,270.864 72.852 C 270.160 72.314,269.321 71.875,268.999 71.875 C 268.678 71.875,268.183 71.655,267.899 71.386 C 267.615 71.117,266.724 70.549,265.918 70.125 C 265.112 69.701,264.453 69.218,264.453 69.052 C 264.453 68.886,264.253 68.750,264.008 68.750 C 263.356 68.750,260.156 67.099,260.156 66.762 C 260.156 66.604,259.453 66.356,258.594 66.211 C 257.734 66.066,257.031 65.798,257.031 65.617 C 257.031 65.436,256.636 65.166,256.152 65.019 C 255.669 64.872,255.010 64.533,254.688 64.267 C 254.365 64.000,253.250 63.575,252.210 63.322 C 251.169 63.068,249.904 62.590,249.397 62.258 C 247.918 61.288,246.869 61.853,247.287 63.394 C 247.747 65.091,245.871 72.575,244.629 73.999 C 244.146 74.553,243.750 75.144,243.750 75.312 C 243.750 75.480,243.003 76.275,242.090 77.078 C 241.177 77.880,240.132 78.816,239.769 79.157 C 239.406 79.497,238.702 79.992,238.206 80.256 C 237.710 80.521,236.602 81.139,235.742 81.631 C 233.887 82.692,229.297 84.471,229.297 84.129 C 229.297 83.997,229.077 84.055,228.809 84.258 C 228.316 84.631,227.724 84.746,225.586 84.885 C 224.941 84.927,224.226 85.137,223.996 85.352 C 223.643 85.680,217.983 85.762,211.328 85.534 C 210.576 85.508,207.236 84.816,203.906 83.996 C 200.576 83.175,197.209 82.393,196.424 82.257 C 195.640 82.121,194.898 81.751,194.777 81.435 C 194.655 81.118,194.287 80.859,193.958 80.859 C 193.629 80.859,193.359 80.684,193.359 80.469 C 193.359 80.254,193.101 80.078,192.785 80.078 C 192.110 80.078,188.672 77.729,188.672 77.269 C 188.672 77.095,188.458 76.953,188.197 76.953 C 187.936 76.953,187.365 76.608,186.928 76.186 C 186.491 75.765,185.507 74.842,184.743 74.136 C 183.978 73.429,183.237 72.544,183.095 72.168 C 182.953 71.792,182.656 71.484,182.434 71.484 C 182.213 71.484,182.031 71.248,182.031 70.959 C 182.031 70.670,181.684 70.119,181.259 69.735 C 180.835 69.351,180.569 68.904,180.669 68.742 C 180.769 68.580,180.606 68.245,180.307 67.997 C 179.728 67.516,179.117 65.750,179.250 64.941 C 179.295 64.673,179.168 64.453,178.969 64.453 C 178.770 64.453,178.654 63.882,178.713 63.184 C 178.771 62.485,178.672 61.732,178.493 61.509 C 178.311 61.282,178.655 59.176,179.276 56.721 C 179.886 54.311,180.269 52.266,180.126 52.178 C 179.728 51.932,176.267 51.989,176.010 52.245 M33.854 62.276 C 33.736 62.583,33.891 63.042,34.199 63.297 C 34.506 63.552,34.660 63.917,34.542 64.108 C 34.424 64.300,34.667 65.115,35.083 65.920 C 35.792 67.291,36.168 68.121,37.739 71.777 C 38.085 72.583,38.524 73.547,38.715 73.920 C 38.906 74.294,39.063 74.865,39.063 75.190 C 39.063 75.515,39.238 75.781,39.453 75.781 C 39.668 75.781,39.844 76.098,39.844 76.484 C 39.844 76.871,39.996 77.354,40.183 77.559 C 40.370 77.763,41.407 80.039,42.487 82.617 C 44.986 88.578,45.067 88.783,45.101 89.285 C 45.117 89.515,45.435 90.168,45.807 90.736 C 46.180 91.304,46.484 91.960,46.484 92.194 C 46.484 92.428,46.867 93.357,47.334 94.259 C 48.727 96.946,49.146 97.835,49.169 98.149 C 49.238 99.114,50.206 101.638,50.649 102.006 C 50.937 102.244,51.172 102.611,51.172 102.821 C 51.172 103.031,51.449 103.844,51.787 104.628 C 52.125 105.413,52.667 106.670,52.992 107.422 C 53.317 108.174,53.919 109.439,54.330 110.234 C 54.742 111.028,55.078 111.874,55.078 112.113 C 55.078 112.513,55.717 114.036,57.864 118.750 C 58.304 119.717,58.929 121.123,59.254 121.875 C 59.578 122.627,60.075 123.770,60.358 124.414 C 61.360 126.698,62.296 129.497,62.178 129.861 C 61.766 131.136,65.580 136.328,66.929 136.328 C 67.250 136.328,67.572 136.460,67.643 136.621 C 68.514 138.580,79.688 138.543,79.688 136.582 C 79.687 136.396,79.934 136.339,80.235 136.455 C 80.537 136.570,81.101 136.433,81.489 136.149 C 81.876 135.866,82.421 135.721,82.698 135.827 C 82.990 135.939,83.203 135.738,83.203 135.352 C 83.203 134.923,83.410 134.761,83.778 134.903 C 84.094 135.024,84.600 134.875,84.903 134.572 C 85.206 134.269,85.538 134.105,85.640 134.208 C 85.742 134.310,86.049 134.126,86.320 133.799 C 86.592 133.471,87.057 133.203,87.353 133.203 C 87.648 133.203,87.891 132.982,87.891 132.713 C 87.891 132.443,88.374 132.003,88.965 131.735 C 90.093 131.224,91.193 130.333,95.236 126.654 C 96.590 125.422,97.876 124.352,98.093 124.275 C 98.310 124.199,98.648 123.716,98.844 123.201 C 99.039 122.687,99.467 122.266,99.795 122.266 C 100.123 122.266,100.391 122.002,100.391 121.680 C 100.391 121.357,100.566 121.094,100.781 121.094 C 100.996 121.094,101.172 120.894,101.172 120.650 C 101.172 120.406,101.567 119.808,102.051 119.320 C 102.534 118.832,103.105 118.197,103.320 117.908 C 103.535 117.619,104.194 116.735,104.785 115.944 C 105.376 115.153,105.859 114.378,105.859 114.223 C 105.859 114.068,106.274 113.397,106.780 112.732 C 107.286 112.067,107.837 111.084,108.005 110.547 C 108.173 110.010,108.704 109.099,109.184 108.524 C 109.665 107.949,110.184 106.806,110.336 105.985 C 110.488 105.164,110.838 104.229,111.113 103.906 C 111.389 103.584,111.739 102.793,111.892 102.148 C 112.045 101.504,112.398 100.713,112.676 100.391 C 113.276 99.695,114.042 96.383,113.985 94.727 C 113.963 94.082,114.042 92.764,114.161 91.797 C 114.572 88.451,112.202 83.313,109.045 80.707 C 108.756 80.469,108.121 79.878,107.633 79.395 C 107.145 78.911,106.547 78.516,106.303 78.516 C 106.059 78.516,105.859 78.340,105.859 78.125 C 105.859 77.910,105.617 77.734,105.321 77.734 C 105.025 77.734,104.579 77.488,104.329 77.187 C 103.935 76.712,100.825 75.780,97.656 75.186 C 97.119 75.085,96.064 74.879,95.313 74.728 C 94.561 74.577,93.739 74.493,93.486 74.541 C 93.234 74.590,88.794 73.569,83.619 72.272 C 78.444 70.975,73.154 69.836,71.863 69.741 C 70.573 69.646,67.103 68.932,64.153 68.153 C 61.203 67.375,57.869 66.666,56.744 66.579 C 55.619 66.491,52.226 65.796,49.204 65.035 C 46.181 64.274,43.576 63.733,43.414 63.834 C 43.252 63.934,41.108 63.503,38.649 62.876 C 36.191 62.249,34.155 61.732,34.124 61.727 C 34.093 61.723,33.972 61.970,33.854 62.276 M115.625 78.192 C 115.625 78.337,116.516 79.234,117.604 80.187 C 118.693 81.139,119.633 82.163,119.694 82.463 C 119.754 82.763,119.898 83.271,120.012 83.594 C 120.445 84.813,121.056 87.335,121.099 88.086 C 121.361 92.600,121.196 94.318,120.069 98.828 C 119.398 101.514,118.564 104.238,118.216 104.883 C 117.868 105.527,117.582 106.336,117.581 106.680 C 117.579 107.023,117.051 108.033,116.406 108.922 C 115.762 109.812,115.234 110.778,115.234 111.070 C 115.234 111.361,114.862 112.022,114.407 112.538 C 113.952 113.054,113.408 113.960,113.197 114.551 C 112.986 115.142,112.656 115.625,112.462 115.625 C 112.268 115.625,112.109 115.863,112.109 116.154 C 112.109 116.445,111.670 117.157,111.133 117.737 C 110.596 118.316,110.156 118.939,110.156 119.120 C 110.156 119.301,109.720 119.863,109.186 120.369 C 108.653 120.875,108.214 121.503,108.210 121.764 C 108.206 122.025,107.852 122.426,107.422 122.656 C 106.992 122.886,106.641 123.332,106.641 123.647 C 106.641 123.961,106.465 124.219,106.250 124.219 C 106.035 124.219,105.859 124.384,105.859 124.586 C 105.859 125.192,99.847 131.516,97.109 133.789 C 96.074 134.648,94.944 135.659,94.597 136.035 C 94.251 136.411,93.742 136.719,93.468 136.719 C 93.193 136.719,92.969 136.895,92.969 137.109 C 92.969 137.324,92.705 137.500,92.383 137.500 C 92.061 137.500,91.797 137.670,91.797 137.879 C 91.797 138.395,88.237 140.633,85.152 142.056 C 83.758 142.699,82.090 143.468,81.445 143.766 C 80.801 144.063,79.834 144.342,79.297 144.386 C 78.760 144.429,77.617 144.662,76.758 144.904 C 72.585 146.079,67.332 145.607,65.482 143.891 C 64.935 143.384,64.335 142.969,64.150 142.969 C 63.965 142.969,63.431 142.529,62.964 141.992 C 62.497 141.455,61.942 141.016,61.731 141.016 C 61.521 141.016,61.057 140.453,60.702 139.765 C 59.491 137.424,58.203 137.109,58.203 139.153 C 58.203 139.546,57.939 139.969,57.617 140.093 C 57.295 140.217,57.031 140.612,57.031 140.971 C 57.031 141.329,56.781 141.980,56.475 142.417 C 56.170 142.853,55.629 144.332,55.273 145.703 C 54.918 147.074,54.377 148.553,54.072 148.989 C 53.766 149.426,53.515 150.052,53.513 150.380 C 53.512 150.708,53.244 151.488,52.918 152.112 C 52.253 153.388,50.391 160.446,50.391 161.692 C 50.391 162.377,50.633 162.500,51.986 162.500 C 53.777 162.500,59.846 163.951,60.156 164.453 C 60.267 164.632,61.762 165.139,63.480 165.580 C 65.197 166.021,67.298 166.738,68.149 167.175 C 69.000 167.612,70.080 167.969,70.549 167.969 C 71.017 167.969,71.493 168.210,71.607 168.505 C 71.720 168.801,72.486 169.168,73.309 169.322 C 75.032 169.645,78.027 170.940,78.772 171.685 C 79.052 171.965,79.988 172.314,80.852 172.460 C 81.715 172.606,82.422 172.885,82.422 173.081 C 82.422 173.277,82.691 173.438,83.020 173.438 C 83.349 173.438,83.719 173.701,83.843 174.023 C 83.969 174.353,84.551 174.609,85.170 174.609 C 85.776 174.609,86.505 174.833,86.789 175.107 C 87.072 175.380,88.228 176.037,89.355 176.566 C 90.483 177.095,91.406 177.643,91.406 177.783 C 91.406 177.923,91.983 178.146,92.688 178.279 C 93.394 178.411,94.227 178.874,94.540 179.309 C 94.853 179.743,95.808 180.287,96.663 180.517 C 97.517 180.747,98.496 181.258,98.838 181.652 C 99.180 182.047,99.976 182.499,100.605 182.657 C 101.235 182.815,101.965 183.134,102.229 183.367 C 103.230 184.250,103.758 184.594,105.273 185.347 C 106.133 185.774,107.275 186.498,107.813 186.957 C 108.350 187.415,109.232 187.894,109.773 188.021 C 110.315 188.147,111.142 188.609,111.613 189.047 C 112.083 189.485,112.645 189.844,112.863 189.844 C 113.408 189.844,116.797 192.264,116.797 192.653 C 116.797 192.827,117.123 192.969,117.521 192.969 C 117.919 192.969,118.685 193.376,119.223 193.875 C 119.760 194.373,120.757 195.011,121.438 195.293 C 122.118 195.575,122.802 196.002,122.958 196.243 C 123.115 196.483,123.857 197.019,124.609 197.433 C 125.361 197.848,126.240 198.479,126.563 198.836 C 126.885 199.192,127.620 199.601,128.197 199.743 C 128.773 199.885,129.356 200.353,129.492 200.782 C 129.629 201.211,130.036 201.566,130.397 201.570 C 130.759 201.574,131.756 202.189,132.613 202.937 C 133.470 203.685,134.394 204.297,134.666 204.297 C 134.939 204.297,135.544 204.736,136.011 205.273 C 136.478 205.811,137.093 206.250,137.378 206.250 C 137.663 206.250,138.278 206.689,138.745 207.227 C 139.212 207.764,139.826 208.203,140.110 208.203 C 140.393 208.203,140.625 208.379,140.625 208.594 C 140.625 208.809,140.858 208.984,141.143 208.984 C 141.428 208.984,142.074 209.424,142.578 209.961 C 143.083 210.498,143.664 210.938,143.871 210.938 C 144.077 210.938,144.652 211.333,145.148 211.816 C 146.780 213.408,148.015 214.453,148.264 214.453 C 148.398 214.453,149.227 215.068,150.106 215.820 C 150.984 216.572,151.923 217.188,152.192 217.188 C 152.462 217.188,152.793 217.539,152.930 217.969 C 153.066 218.398,153.517 218.750,153.933 218.750 C 154.348 218.750,154.688 218.971,154.688 219.241 C 154.688 219.510,155.216 219.965,155.862 220.251 C 156.507 220.537,156.936 220.931,156.815 221.127 C 156.694 221.324,156.856 221.484,157.175 221.484 C 157.495 221.484,158.101 221.924,158.524 222.461 C 158.946 222.998,159.443 223.440,159.627 223.443 C 160.010 223.449,161.541 224.625,163.560 226.465 C 164.326 227.163,165.192 227.734,165.484 227.734 C 165.777 227.734,166.016 228.004,166.016 228.333 C 166.016 228.662,166.323 229.044,166.699 229.182 C 167.075 229.321,167.768 229.799,168.239 230.244 C 170.003 231.913,171.073 232.813,171.293 232.813 C 171.418 232.813,171.931 233.208,172.432 233.691 C 172.934 234.175,174.178 235.273,175.195 236.133 C 176.213 236.992,177.772 238.309,178.660 239.059 C 179.547 239.810,180.833 240.996,181.517 241.696 C 182.201 242.396,182.919 242.969,183.114 242.969 C 183.309 242.969,184.032 243.540,184.721 244.238 C 186.963 246.509,187.774 247.266,187.968 247.266 C 188.072 247.266,189.860 248.936,191.942 250.977 C 194.023 253.018,195.858 254.688,196.021 254.688 C 196.183 254.688,196.627 255.215,197.008 255.859 C 197.400 256.522,198.030 257.031,198.460 257.031 C 198.877 257.031,199.219 257.264,199.219 257.549 C 199.219 257.834,199.834 258.580,200.586 259.207 C 201.338 259.834,201.953 260.568,201.953 260.838 C 201.953 261.107,202.217 261.328,202.539 261.328 C 202.861 261.328,203.125 261.508,203.125 261.727 C 203.125 261.947,203.564 262.326,204.102 262.571 C 204.639 262.816,205.078 263.156,205.078 263.328 C 205.078 263.794,208.108 266.797,208.578 266.797 C 208.802 266.797,208.984 267.148,208.984 267.578 C 208.984 268.008,209.236 268.359,209.544 268.359 C 209.852 268.359,210.215 268.711,210.352 269.141 C 210.488 269.570,210.784 269.922,211.008 269.922 C 211.233 269.922,212.056 270.657,212.838 271.555 C 213.619 272.453,214.917 273.846,215.723 274.649 C 216.528 275.453,217.188 276.268,217.188 276.461 C 217.188 276.654,217.627 277.194,218.164 277.661 C 218.701 278.128,219.141 278.687,219.141 278.904 C 219.141 279.120,219.383 279.297,219.680 279.297 C 219.977 279.297,220.668 279.868,221.215 280.566 C 221.762 281.265,222.618 282.307,223.117 282.882 C 223.615 283.457,224.551 284.582,225.195 285.381 C 226.267 286.711,227.992 288.812,229.188 290.248 C 229.451 290.563,230.110 291.329,230.653 291.952 C 231.196 292.574,231.641 293.233,231.641 293.416 C 231.641 293.600,231.904 293.750,232.227 293.750 C 232.549 293.750,232.813 293.949,232.813 294.192 C 232.813 294.435,233.428 295.490,234.180 296.536 C 234.932 297.583,235.547 298.524,235.547 298.627 C 235.547 298.730,236.118 299.416,236.816 300.153 C 237.515 300.889,238.740 302.518,239.539 303.773 C 241.565 306.953,241.896 307.440,242.691 308.401 C 243.075 308.866,243.690 309.776,244.058 310.423 C 245.537 313.025,248.129 317.451,248.819 318.555 C 249.222 319.199,249.565 319.971,249.581 320.269 C 249.597 320.568,249.847 321.007,250.137 321.246 C 250.694 321.704,254.004 329.076,254.102 330.078 C 254.322 332.318,256.553 333.610,257.689 332.154 C 257.943 331.829,258.326 331.671,258.541 331.803 C 258.755 331.936,259.030 331.884,259.151 331.687 C 259.404 331.277,262.355 329.687,262.863 329.688 C 263.050 329.688,264.319 328.979,265.683 328.114 C 267.048 327.248,268.472 326.437,268.848 326.310 C 269.224 326.184,269.531 325.925,269.531 325.736 C 269.531 325.546,269.689 325.391,269.882 325.391 C 270.362 325.391,275.244 322.403,276.124 321.571 C 276.515 321.201,277.214 320.593,277.676 320.219 C 278.609 319.464,278.777 318.756,278.027 318.739 C 275.516 318.680,272.510 312.541,272.300 307.041 C 272.247 305.650,272.137 304.405,272.057 304.275 C 271.977 304.145,272.164 303.086,272.474 301.922 C 272.784 300.757,273.040 299.160,273.042 298.372 C 273.045 297.585,273.193 296.882,273.372 296.810 C 273.551 296.738,274.077 295.152,274.542 293.284 C 275.088 291.088,275.722 289.527,276.335 288.865 C 276.857 288.302,277.398 287.163,277.538 286.334 C 277.678 285.505,278.043 284.731,278.349 284.613 C 278.656 284.496,278.906 284.130,278.906 283.801 C 278.906 283.472,279.082 283.203,279.297 283.203 C 279.512 283.203,279.688 282.864,279.688 282.450 C 279.688 282.035,279.951 281.433,280.273 281.110 C 280.596 280.788,280.859 280.243,280.859 279.898 C 280.859 279.554,281.123 279.171,281.445 279.048 C 281.768 278.924,282.031 278.490,282.031 278.083 C 282.031 277.677,282.207 277.344,282.422 277.344 C 282.637 277.344,282.813 277.075,282.813 276.746 C 282.812 276.417,283.076 276.046,283.398 275.923 C 283.721 275.799,283.984 275.453,283.984 275.154 C 283.984 274.854,284.160 274.609,284.375 274.609 C 284.590 274.609,284.766 274.345,284.766 274.021 C 284.766 273.697,285.205 273.050,285.742 272.583 C 286.279 272.116,286.719 271.585,286.719 271.404 C 286.719 271.222,287.290 270.438,287.988 269.661 C 289.957 267.472,290.264 267.188,290.653 267.188 C 290.852 267.188,291.016 266.836,291.016 266.406 C 291.016 265.977,291.215 265.625,291.458 265.625 C 291.701 265.625,292.448 265.054,293.118 264.355 C 294.776 262.628,300.279 258.594,300.978 258.594 C 301.071 258.594,302.387 257.792,303.901 256.813 C 307.243 254.651,314.651 251.405,315.500 251.731 C 315.838 251.861,316.312 251.805,316.553 251.607 C 316.795 251.408,317.607 251.195,318.359 251.132 C 319.111 251.069,319.916 250.880,320.148 250.712 C 320.379 250.544,321.169 250.579,321.903 250.789 C 325.196 251.734,326.012 251.134,324.728 248.711 C 323.963 247.267,323.870 246.913,323.624 244.531 C 323.265 241.045,323.124 240.328,322.617 239.409 C 322.334 238.896,322.143 238.273,322.193 238.024 C 322.313 237.426,318.657 229.055,317.188 226.563 C 316.552 225.486,315.656 223.770,315.196 222.751 C 314.735 221.732,313.765 220.084,313.039 219.088 C 312.313 218.093,311.719 217.144,311.719 216.980 C 311.719 216.816,311.104 215.931,310.352 215.014 C 309.600 214.096,308.984 213.174,308.984 212.964 C 308.984 212.754,308.494 212.058,307.895 211.416 C 307.295 210.774,306.870 210.053,306.951 209.812 C 307.031 209.572,306.913 209.375,306.690 209.375 C 306.466 209.375,305.801 208.540,305.212 207.520 C 304.623 206.499,303.912 205.523,303.633 205.352 C 303.353 205.180,302.841 204.477,302.493 203.789 C 302.145 203.102,301.223 201.927,300.443 201.179 C 299.663 200.431,299.077 199.596,299.139 199.324 C 299.202 199.051,298.982 198.828,298.650 198.828 C 298.318 198.828,298.047 198.571,298.047 198.256 C 298.047 197.941,297.695 197.496,297.266 197.266 C 296.836 197.036,296.484 196.622,296.484 196.346 C 296.484 196.070,296.089 195.463,295.605 194.998 C 295.122 194.532,294.287 193.609,293.750 192.945 C 293.213 192.282,292.212 191.093,291.526 190.303 C 289.107 187.517,288.461 186.770,286.914 184.969 C 285.329 183.124,280.008 177.384,276.270 173.485 C 275.142 172.309,274.219 171.202,274.219 171.025 C 274.219 170.848,273.967 170.703,273.659 170.703 C 273.351 170.703,272.988 170.352,272.852 169.922 C 272.715 169.492,272.372 169.141,272.088 169.141 C 271.804 169.141,271.157 168.615,270.649 167.972 C 270.142 167.330,269.519 166.802,269.265 166.800 C 269.011 166.798,268.691 166.445,268.555 166.016 C 268.418 165.586,268.055 165.234,267.747 165.234 C 267.439 165.234,267.188 164.965,267.188 164.636 C 267.188 164.307,266.883 163.921,266.510 163.778 C 265.755 163.488,262.500 160.164,262.500 159.682 C 262.500 159.513,262.246 159.375,261.936 159.375 C 261.626 159.375,261.143 159.053,260.862 158.660 C 260.581 158.267,259.868 157.632,259.277 157.248 C 258.687 156.865,258.203 156.326,258.203 156.052 C 258.203 155.778,257.764 155.443,257.227 155.308 C 256.689 155.174,256.250 154.799,256.250 154.475 C 256.250 154.152,255.811 153.720,255.273 153.516 C 254.736 153.311,254.297 152.876,254.297 152.549 C 254.297 152.221,254.129 151.953,253.924 151.953 C 253.603 151.953,251.540 150.171,248.159 146.973 C 247.648 146.489,247.125 146.094,246.996 146.094 C 246.868 146.094,246.149 145.522,245.400 144.824 C 244.650 144.126,243.612 143.159,243.094 142.676 C 242.576 142.192,242.048 141.797,241.922 141.797 C 241.795 141.797,241.306 141.401,240.835 140.918 C 240.365 140.435,239.554 139.739,239.033 139.372 C 237.156 138.050,236.226 137.289,235.432 136.426 C 234.988 135.942,234.483 135.547,234.309 135.547 C 233.942 135.547,232.582 134.481,231.693 133.496 C 231.354 133.120,230.896 132.812,230.675 132.812 C 230.454 132.812,229.763 132.372,229.138 131.835 C 228.514 131.299,227.867 130.859,227.700 130.859 C 227.533 130.859,227.285 130.508,227.148 130.078 C 227.012 129.648,226.633 129.297,226.305 129.297 C 225.978 129.297,224.991 128.682,224.113 127.930 C 223.234 127.178,222.326 126.563,222.094 126.563 C 221.862 126.563,221.453 126.211,221.184 125.781 C 220.916 125.352,220.433 125.000,220.111 125.000 C 219.789 125.000,219.144 124.561,218.677 124.023 C 218.210 123.486,217.622 123.047,217.369 123.047 C 217.117 123.047,216.437 122.607,215.857 122.070 C 215.278 121.533,214.637 121.094,214.433 121.094 C 214.229 121.094,214.063 120.918,214.063 120.703 C 214.063 120.488,213.843 120.309,213.574 120.306 C 213.306 120.302,212.672 119.863,212.166 119.329 C 211.660 118.796,211.077 118.359,210.870 118.359 C 210.664 118.359,209.919 117.920,209.214 117.383 C 208.510 116.846,207.811 116.406,207.661 116.406 C 207.512 116.406,207.177 116.227,206.917 116.008 C 204.726 114.158,203.998 113.635,203.320 113.421 C 202.891 113.285,202.042 112.759,201.435 112.251 C 200.828 111.744,200.111 111.328,199.843 111.328 C 199.574 111.328,198.942 110.889,198.437 110.352 C 197.933 109.814,197.287 109.375,197.002 109.375 C 196.717 109.375,196.484 109.241,196.484 109.077 C 196.484 108.779,195.327 108.073,194.043 107.589 C 193.667 107.447,193.359 107.175,193.359 106.986 C 193.359 106.796,193.038 106.641,192.646 106.641 C 192.254 106.641,191.539 106.221,191.056 105.707 C 190.574 105.194,189.680 104.674,189.070 104.552 C 188.459 104.430,187.512 103.883,186.966 103.337 C 186.420 102.791,185.613 102.344,185.174 102.344 C 184.735 102.344,184.375 102.167,184.375 101.952 C 184.375 101.736,183.672 101.256,182.813 100.883 C 181.953 100.511,181.250 100.079,181.250 99.923 C 181.250 99.767,180.547 99.450,179.688 99.219 C 178.828 98.987,178.125 98.629,178.125 98.422 C 178.125 98.216,177.861 98.047,177.539 98.047 C 177.217 98.047,176.953 97.899,176.953 97.718 C 176.953 97.537,176.250 97.179,175.391 96.921 C 174.531 96.664,173.828 96.284,173.828 96.078 C 173.828 95.872,173.477 95.703,173.047 95.703 C 172.617 95.703,172.266 95.539,172.266 95.339 C 172.266 95.138,171.870 94.854,171.387 94.707 C 170.903 94.559,170.244 94.220,169.922 93.952 C 169.600 93.684,168.809 93.339,168.164 93.186 C 167.520 93.033,166.450 92.496,165.788 91.992 C 165.126 91.488,163.931 90.953,163.132 90.803 C 162.334 90.653,161.467 90.332,161.205 90.090 C 160.405 89.346,158.104 88.330,156.152 87.857 C 155.132 87.610,154.297 87.268,154.297 87.097 C 154.297 86.927,153.590 86.668,152.727 86.522 C 151.863 86.376,150.891 85.991,150.566 85.666 C 150.241 85.341,148.970 84.813,147.741 84.492 C 146.513 84.172,145.420 83.779,145.313 83.620 C 144.896 83.003,125.511 78.513,122.266 78.281 C 117.261 77.925,115.625 77.903,115.625 78.192 M205.469 134.476 C 208.202 134.433,215.155 136.117,218.026 137.517 C 219.239 138.108,220.755 138.707,221.395 138.848 C 222.035 138.988,222.962 139.533,223.457 140.059 C 223.951 140.585,224.637 141.016,224.981 141.016 C 225.326 141.016,225.885 141.323,226.225 141.699 C 227.139 142.713,228.477 143.750,228.869 143.750 C 229.058 143.750,229.315 144.015,229.439 144.339 C 229.564 144.663,230.107 145.130,230.646 145.375 C 231.185 145.621,231.729 146.147,231.855 146.544 C 231.981 146.941,232.348 147.266,232.671 147.266 C 233.466 147.266,239.844 153.798,239.844 154.612 C 239.844 154.833,239.990 155.072,240.169 155.143 C 240.595 155.314,242.925 159.047,244.151 161.523 C 244.682 162.598,245.223 163.564,245.352 163.672 C 245.661 163.929,247.181 168.036,247.481 169.422 C 248.537 174.317,249.234 178.892,249.059 179.785 C 248.943 180.376,249.016 180.859,249.222 180.859 C 249.532 180.859,249.522 183.424,249.206 184.961 C 249.162 185.176,249.165 185.527,249.212 185.742 C 249.639 187.686,247.079 200.142,245.961 201.563 C 245.153 202.589,244.141 204.593,244.141 205.168 C 244.141 205.473,243.701 206.136,243.164 206.641 C 242.627 207.145,242.188 207.783,242.188 208.058 C 242.188 208.333,241.791 208.962,241.305 209.455 C 240.820 209.948,240.249 210.725,240.036 211.181 C 239.613 212.086,236.323 215.954,233.691 218.639 C 232.778 219.571,232.031 220.504,232.031 220.713 C 232.031 220.923,231.762 221.094,231.432 221.094 C 231.103 221.094,230.338 221.600,229.733 222.219 C 229.129 222.837,227.115 224.258,225.258 225.375 C 223.401 226.493,221.780 227.572,221.656 227.772 C 221.532 227.973,221.279 228.044,221.093 227.929 C 220.908 227.815,219.821 228.143,218.679 228.658 C 216.352 229.709,215.020 230.163,213.867 230.302 C 213.438 230.354,212.383 230.599,211.523 230.847 C 210.664 231.095,209.697 231.305,209.375 231.314 C 209.053 231.323,207.910 231.546,206.836 231.810 C 205.669 232.097,204.421 232.165,203.734 231.979 C 203.102 231.808,202.399 231.812,202.172 231.988 C 200.378 233.375,184.352 230.408,181.154 228.098 C 180.350 227.516,179.080 226.926,178.333 226.786 C 177.587 226.646,176.751 226.212,176.476 225.822 C 176.201 225.431,175.625 225.000,175.195 224.863 C 174.766 224.725,173.799 224.085,173.047 223.440 C 172.295 222.795,171.480 222.267,171.236 222.267 C 170.992 222.266,170.505 221.826,170.153 221.289 C 169.801 220.752,169.265 220.313,168.963 220.313 C 168.660 220.313,168.300 219.961,168.164 219.531 C 168.028 219.102,167.725 218.750,167.490 218.750 C 166.878 218.750,162.037 213.692,160.516 211.463 C 159.806 210.422,159.083 209.512,158.909 209.440 C 158.736 209.368,158.594 209.070,158.594 208.776 C 158.594 208.482,158.374 208.101,158.105 207.930 C 157.837 207.758,157.617 207.441,157.617 207.227 C 157.617 207.012,156.896 205.342,156.014 203.516 C 153.975 199.292,152.996 196.603,153.253 195.934 C 153.364 195.644,153.264 195.218,153.032 194.985 C 152.800 194.753,152.554 194.072,152.487 193.473 C 152.312 191.911,152.026 190.039,151.962 190.039 C 151.542 190.039,151.356 182.589,151.655 177.734 C 151.865 174.315,153.370 167.578,153.923 167.578 C 154.095 167.578,154.356 167.007,154.505 166.309 C 154.653 165.610,154.999 164.775,155.273 164.453 C 155.548 164.131,155.892 163.302,156.039 162.612 C 156.186 161.921,156.730 160.954,157.248 160.463 C 157.766 159.972,158.193 159.284,158.196 158.935 C 158.200 158.585,158.467 158.080,158.789 157.813 C 159.111 157.545,159.375 157.159,159.375 156.956 C 159.375 156.752,159.595 156.358,159.863 156.082 C 161.383 154.515,162.891 152.718,162.891 152.473 C 162.891 152.317,163.408 151.653,164.040 150.997 C 168.293 146.582,169.611 145.313,169.939 145.313 C 170.145 145.313,170.313 145.133,170.313 144.914 C 170.313 144.694,170.752 144.314,171.289 144.070 C 171.826 143.825,172.266 143.389,172.266 143.101 C 172.266 142.814,172.617 142.578,173.047 142.578 C 173.477 142.578,173.828 142.429,173.828 142.247 C 173.828 142.065,174.575 141.586,175.488 141.184 C 176.401 140.781,177.289 140.227,177.461 139.953 C 177.633 139.678,178.028 139.453,178.340 139.453 C 178.651 139.453,178.906 139.277,178.906 139.063 C 178.906 138.848,179.324 138.672,179.835 138.672 C 180.346 138.672,180.989 138.400,181.265 138.068 C 181.540 137.736,181.988 137.550,182.261 137.654 C 182.533 137.759,182.964 137.593,183.219 137.286 C 183.474 136.979,183.831 136.819,184.013 136.932 C 184.195 137.044,184.658 136.958,185.043 136.741 C 185.697 136.371,188.528 135.518,189.844 135.294 C 191.884 134.947,194.723 134.655,197.219 134.538 C 198.805 134.463,200.209 134.296,200.338 134.167 C 200.468 134.038,201.192 134.062,201.947 134.221 C 202.702 134.380,204.287 134.495,205.469 134.476 M325.691 135.767 C 325.570 135.888,324.887 136.004,324.174 136.024 C 322.862 136.062,316.797 139.555,316.797 140.273 C 316.797 140.467,316.613 140.625,316.388 140.625 C 315.742 140.625,314.124 142.668,313.862 143.815 C 313.731 144.388,313.371 144.954,313.062 145.072 C 312.753 145.191,312.499 145.513,312.498 145.789 C 312.496 146.064,312.237 146.784,311.922 147.388 C 311.606 147.993,311.151 149.575,310.909 150.904 C 310.668 152.233,310.319 154.022,310.135 154.881 C 309.949 155.747,309.949 156.590,310.135 156.776 C 310.319 156.960,310.324 157.620,310.145 158.243 C 309.966 158.865,309.969 159.895,310.151 160.530 C 310.334 161.165,310.388 162.045,310.273 162.485 C 310.158 162.925,310.281 163.547,310.547 163.867 C 310.812 164.187,310.939 164.795,310.829 165.218 C 310.718 165.641,310.863 166.182,311.150 166.420 C 311.437 166.659,311.590 167.070,311.488 167.333 C 311.387 167.597,311.835 168.858,312.483 170.137 C 313.132 171.415,313.664 172.681,313.667 172.949 C 313.670 173.218,313.848 173.438,314.063 173.438 C 314.277 173.438,314.453 173.707,314.453 174.036 C 314.453 174.365,314.717 174.735,315.039 174.859 C 315.361 174.982,315.625 175.248,315.625 175.448 C 315.625 176.660,321.553 182.813,322.720 182.813 C 323.089 182.813,323.491 182.973,323.612 183.169 C 323.997 183.793,327.338 185.242,327.896 185.028 C 328.192 184.914,329.459 184.961,330.713 185.131 C 333.428 185.500,334.781 185.167,336.971 183.595 C 337.869 182.950,338.751 182.421,338.931 182.421 C 339.111 182.420,339.873 181.887,340.625 181.235 C 343.088 179.100,348.090 176.720,350.893 176.349 C 351.491 176.270,352.485 175.846,353.101 175.407 C 353.718 174.969,354.420 174.609,354.662 174.609 C 354.905 174.609,355.204 174.346,355.327 174.023 C 355.451 173.701,355.737 173.438,355.962 173.438 C 356.187 173.438,356.948 172.998,357.652 172.461 C 358.356 171.924,359.101 171.484,359.307 171.484 C 359.513 171.484,359.773 171.248,359.883 170.960 C 359.994 170.672,360.672 170.142,361.390 169.784 C 362.108 169.425,363.398 168.696,364.258 168.162 C 365.117 167.629,366.084 167.068,366.406 166.916 C 367.435 166.429,370.503 164.301,370.638 163.981 C 370.710 163.811,370.996 163.672,371.274 163.672 C 371.552 163.672,372.000 163.406,372.270 163.081 C 372.540 162.755,374.231 161.601,376.029 160.515 C 380.376 157.890,380.324 157.261,375.679 156.232 C 374.441 155.957,373.233 155.498,372.994 155.210 C 372.756 154.923,372.252 154.688,371.875 154.688 C 371.498 154.688,370.990 154.447,370.747 154.154 C 370.503 153.861,369.237 153.394,367.932 153.117 C 366.628 152.840,365.353 152.407,365.101 152.154 C 364.848 151.901,364.159 151.573,363.570 151.426 C 362.982 151.278,362.500 150.997,362.500 150.802 C 362.500 150.606,361.533 150.230,360.352 149.966 C 359.170 149.701,358.203 149.365,358.203 149.219 C 358.203 149.072,357.225 148.734,356.030 148.466 C 354.834 148.198,353.761 147.731,353.644 147.427 C 353.527 147.124,353.178 146.875,352.866 146.875 C 352.555 146.875,351.563 146.539,350.662 146.129 C 349.761 145.719,348.371 145.261,347.573 145.112 C 346.775 144.962,345.918 144.595,345.669 144.295 C 345.420 143.995,344.899 143.750,344.511 143.750 C 344.123 143.750,343.553 143.497,343.244 143.188 C 342.935 142.879,341.626 142.353,340.334 142.018 C 339.043 141.684,337.482 141.146,336.864 140.824 C 336.247 140.503,335.544 140.238,335.302 140.237 C 335.059 140.235,334.654 139.984,334.400 139.679 C 334.147 139.374,333.243 139.006,332.392 138.862 C 331.540 138.718,330.626 138.383,330.359 138.116 C 330.093 137.850,329.434 137.521,328.895 137.386 C 328.355 137.250,327.529 136.781,327.059 136.343 C 326.134 135.481,326.024 135.435,325.691 135.767 M195.993 143.783 C 195.615 144.003,195.147 144.084,194.952 143.964 C 194.756 143.843,194.137 143.919,193.576 144.132 C 193.015 144.346,192.023 144.561,191.372 144.611 C 190.722 144.660,190.002 144.926,189.773 145.202 C 189.545 145.478,188.940 145.703,188.429 145.703 C 187.918 145.703,187.500 145.852,187.500 146.034 C 187.500 146.216,186.985 146.380,186.355 146.398 C 185.355 146.426,182.195 147.819,181.642 148.475 C 181.534 148.603,180.962 148.826,180.371 148.971 C 179.780 149.115,179.297 149.494,179.297 149.812 C 179.297 150.130,178.945 150.391,178.516 150.391 C 178.086 150.391,177.734 150.566,177.734 150.781 C 177.734 150.996,177.546 151.172,177.316 151.172 C 177.086 151.172,176.661 151.392,176.373 151.660 C 176.085 151.929,175.274 152.588,174.571 153.125 C 172.879 154.418,168.359 159.056,168.359 159.499 C 168.359 159.691,167.920 160.370,167.383 161.009 C 166.846 161.647,166.406 162.421,166.406 162.729 C 166.406 163.036,165.911 163.972,165.305 164.808 C 164.700 165.644,163.975 167.351,163.696 168.601 C 163.416 169.852,162.944 171.245,162.647 171.699 C 162.350 172.152,161.929 173.827,161.712 175.421 C 161.494 177.016,161.182 179.023,161.019 179.883 C 160.855 180.742,160.822 182.061,160.944 182.813 C 161.067 183.564,161.037 184.675,160.877 185.280 C 160.717 185.886,160.768 186.852,160.991 187.429 C 161.213 188.005,161.397 189.092,161.399 189.844 C 161.400 190.596,161.576 191.422,161.788 191.680 C 162.000 191.939,162.068 192.485,161.938 192.895 C 161.798 193.333,161.944 193.841,162.292 194.130 C 162.616 194.399,162.786 194.775,162.668 194.965 C 162.551 195.155,162.754 195.883,163.119 196.581 C 164.299 198.838,164.453 199.200,164.453 199.718 C 164.453 200.933,169.804 208.916,172.142 211.186 C 173.499 212.505,174.609 213.779,174.609 214.018 C 174.609 214.258,174.881 214.453,175.213 214.453 C 175.545 214.453,176.241 214.877,176.759 215.395 C 177.277 215.913,178.235 216.454,178.889 216.598 C 179.543 216.741,180.078 217.021,180.078 217.219 C 180.078 217.416,180.320 217.578,180.616 217.578 C 180.912 217.578,181.373 217.842,181.641 218.164 C 181.908 218.486,182.413 218.751,182.763 218.752 C 183.112 218.754,183.926 219.035,184.570 219.378 C 186.556 220.434,196.333 222.937,196.769 222.502 C 196.853 222.418,197.790 222.578,198.852 222.858 C 199.969 223.153,200.781 223.211,200.781 222.997 C 200.781 222.793,201.792 222.644,203.027 222.665 C 205.581 222.710,207.055 222.539,207.735 222.118 C 207.992 221.959,208.365 221.929,208.562 222.051 C 208.760 222.173,209.157 222.037,209.445 221.750 C 209.732 221.462,210.203 221.305,210.491 221.401 C 210.779 221.497,211.393 221.397,211.855 221.179 C 212.317 220.960,213.311 220.571,214.063 220.313 C 215.639 219.771,217.295 219.035,217.578 218.750 C 217.686 218.642,218.301 218.311,218.945 218.014 C 221.639 216.776,223.293 215.832,224.112 215.069 C 225.987 213.319,226.585 212.891,227.148 212.891 C 227.474 212.891,227.734 212.543,227.734 212.109 C 227.734 211.680,227.900 211.328,228.102 211.328 C 229.119 211.328,233.466 206.141,233.830 204.492 C 233.973 203.848,234.395 203.106,234.769 202.845 C 235.142 202.583,235.648 201.572,235.894 200.598 C 236.139 199.625,236.500 198.828,236.697 198.828 C 237.350 198.828,239.623 189.491,239.835 185.938 C 240.253 178.914,239.395 174.015,236.620 167.578 C 236.388 167.041,236.158 166.400,236.108 166.153 C 235.954 165.387,232.770 160.113,231.990 159.334 C 231.583 158.927,231.250 158.498,231.250 158.382 C 231.250 158.088,230.468 157.167,229.199 155.966 C 228.608 155.406,228.125 154.714,228.125 154.428 C 228.125 154.141,227.873 153.906,227.566 153.906 C 227.258 153.906,226.640 153.392,226.193 152.764 C 225.746 152.136,224.863 151.509,224.231 151.370 C 223.598 151.231,222.977 150.785,222.847 150.377 C 222.703 149.921,222.100 149.540,221.280 149.387 C 220.547 149.249,219.471 148.727,218.888 148.226 C 218.296 147.718,216.608 147.023,215.066 146.653 C 213.547 146.288,212.009 145.733,211.649 145.420 C 211.288 145.107,210.053 144.794,208.905 144.724 C 207.757 144.655,205.703 144.310,204.340 143.957 C 202.655 143.520,201.534 143.425,200.834 143.660 C 200.268 143.850,199.365 143.878,198.828 143.721 C 197.429 143.314,196.773 143.329,195.993 143.783 M46.270 181.934 C 46.105 182.739,45.914 184.541,45.846 185.938 C 45.778 187.334,45.609 189.795,45.472 191.406 C 45.334 193.018,45.263 194.688,45.313 195.117 C 45.432 196.135,45.433 197.482,45.316 199.414 C 45.264 200.273,45.267 201.152,45.323 201.367 C 45.378 201.582,45.442 202.196,45.465 202.731 C 45.516 203.884,46.463 204.028,48.242 203.154 C 51.696 201.458,55.371 200.625,59.180 200.676 C 63.306 200.730,64.453 200.842,64.453 201.192 C 64.453 201.391,65.156 201.666,66.016 201.803 C 66.875 201.941,67.578 202.202,67.578 202.384 C 67.578 202.670,70.700 204.297,71.248 204.297 C 71.356 204.297,71.918 204.736,72.498 205.273 C 73.077 205.811,73.702 206.250,73.885 206.250 C 76.389 206.250,87.109 220.861,87.109 224.273 C 87.109 224.694,87.373 225.549,87.695 226.172 C 88.017 226.795,88.360 227.924,88.457 228.681 C 88.554 229.438,88.802 230.372,89.007 230.757 C 89.445 231.575,90.157 236.297,90.230 238.867 C 90.390 244.510,89.258 252.344,88.282 252.344 C 88.121 252.344,87.880 252.883,87.749 253.542 C 87.617 254.200,87.340 254.635,87.134 254.507 C 86.927 254.380,86.640 254.939,86.495 255.751 C 86.350 256.562,85.814 257.786,85.303 258.470 C 84.793 259.154,84.369 259.857,84.362 260.033 C 84.340 260.568,81.021 264.063,80.534 264.063 C 80.283 264.063,80.078 264.345,80.078 264.690 C 80.078 265.071,79.861 265.235,79.525 265.106 C 79.220 264.989,78.867 265.164,78.740 265.495 C 78.613 265.826,78.258 266.000,77.952 265.883 C 77.645 265.765,77.338 265.837,77.270 266.041 C 77.202 266.246,76.729 266.494,76.220 266.592 C 75.710 266.690,74.865 267.051,74.342 267.394 C 73.818 267.737,73.181 267.946,72.925 267.859 C 72.670 267.771,71.676 268.033,70.718 268.442 C 69.759 268.850,68.353 269.246,67.593 269.322 C 66.833 269.397,65.547 269.584,64.736 269.736 L 63.262 270.012 64.062 271.237 C 64.502 271.910,65.342 273.470,65.927 274.703 C 67.103 277.178,67.645 277.399,69.219 276.045 C 69.799 275.546,71.029 274.913,71.953 274.638 C 72.877 274.363,74.041 273.978,74.541 273.782 C 75.040 273.587,75.615 273.530,75.818 273.656 C 76.022 273.781,77.634 273.939,79.402 274.006 C 81.171 274.074,84.071 274.505,85.848 274.965 C 88.746 275.716,90.123 276.256,93.359 277.910 C 93.896 278.185,94.851 278.533,95.482 278.683 C 96.112 278.834,97.136 279.385,97.758 279.908 C 98.379 280.431,99.304 280.859,99.813 280.859 C 100.321 280.859,100.977 281.203,101.271 281.622 C 101.565 282.042,102.278 282.565,102.856 282.784 C 103.434 283.004,103.906 283.364,103.906 283.584 C 103.906 283.804,104.151 283.984,104.451 283.984 C 104.751 283.984,105.410 284.421,105.916 284.954 C 106.422 285.488,107.012 285.927,107.227 285.931 C 107.441 285.935,108.128 286.378,108.752 286.915 C 109.376 287.451,109.992 287.895,110.119 287.900 C 110.247 287.905,110.983 288.476,111.754 289.169 C 112.525 289.862,113.655 290.781,114.263 291.211 C 114.872 291.641,115.735 292.357,116.181 292.803 C 116.627 293.248,117.300 293.726,117.676 293.865 C 118.052 294.003,118.359 294.385,118.359 294.714 C 118.359 295.043,118.579 295.316,118.848 295.321 C 119.116 295.326,119.951 296.054,120.703 296.940 C 121.455 297.825,122.949 299.456,124.023 300.564 C 125.098 301.672,126.680 303.578,127.539 304.800 C 128.398 306.021,129.849 308.011,130.762 309.222 C 131.675 310.432,132.422 311.655,132.422 311.939 C 132.422 312.223,132.817 313.125,133.301 313.943 C 134.245 315.541,135.576 318.900,135.711 320.026 C 135.756 320.405,136.002 320.924,136.256 321.178 C 136.511 321.432,136.719 322.121,136.719 322.709 C 136.719 323.297,136.885 324.214,137.088 324.748 C 137.652 326.233,136.195 331.898,134.952 333.050 C 133.803 334.115,133.710 334.766,134.706 334.766 C 135.103 334.766,135.833 335.117,136.328 335.547 C 136.824 335.977,137.510 336.329,137.853 336.331 C 138.196 336.332,138.975 336.593,139.583 336.910 C 140.192 337.228,141.415 337.683,142.302 337.921 C 143.188 338.160,144.096 338.580,144.320 338.854 C 144.856 339.512,146.422 339.870,146.712 339.401 C 146.838 339.197,147.253 339.130,147.634 339.251 C 148.645 339.572,149.365 338.509,149.014 337.212 C 148.854 336.618,148.682 335.781,148.632 335.352 C 148.582 334.922,148.404 333.604,148.235 332.422 C 147.834 329.603,147.814 329.912,148.623 326.559 C 149.377 323.438,151.222 319.666,152.406 318.826 C 152.801 318.545,153.125 318.073,153.125 317.778 C 153.125 317.482,153.477 317.129,153.906 316.992 C 154.336 316.856,154.688 316.588,154.688 316.396 C 154.688 316.205,155.500 315.573,156.492 314.991 C 157.485 314.409,158.700 313.530,159.193 313.037 C 159.686 312.544,160.544 312.027,161.099 311.888 C 161.655 311.748,162.109 311.477,162.109 311.286 C 162.109 311.094,162.329 310.936,162.598 310.935 C 162.866 310.934,163.588 310.671,164.201 310.351 C 164.814 310.031,165.453 309.855,165.621 309.959 C 165.790 310.063,166.143 309.888,166.406 309.570 C 166.670 309.253,167.011 309.071,167.165 309.166 C 167.319 309.261,168.286 309.085,169.315 308.776 C 170.343 308.466,171.336 308.307,171.522 308.422 C 171.707 308.536,172.238 308.427,172.701 308.179 C 173.874 307.551,181.704 307.338,184.766 307.851 C 189.048 308.568,194.294 309.834,195.129 310.351 C 195.565 310.622,196.912 311.065,198.121 311.335 C 199.338 311.608,200.765 312.239,201.315 312.750 C 201.862 313.257,202.589 313.672,202.930 313.672 C 203.272 313.672,203.991 314.111,204.528 314.648 C 205.065 315.186,205.649 315.625,205.826 315.625 C 206.218 315.625,209.074 318.469,210.938 320.714 C 211.689 321.620,212.669 322.757,213.115 323.240 C 217.080 327.534,219.091 337.131,216.686 340.284 C 216.103 341.049,215.625 341.848,215.625 342.059 C 215.625 342.269,215.178 342.862,214.632 343.375 C 213.569 344.374,213.451 346.016,214.462 345.742 C 214.780 345.656,215.479 345.531,216.016 345.463 C 216.553 345.395,217.783 345.137,218.750 344.890 C 219.717 344.642,221.229 344.398,222.111 344.348 C 222.992 344.298,223.918 344.131,224.168 343.977 C 224.418 343.822,225.279 343.621,226.081 343.529 C 228.235 343.283,228.591 343.185,229.956 342.462 C 230.640 342.099,231.453 341.899,231.761 342.017 C 232.069 342.136,232.426 341.959,232.555 341.624 C 232.683 341.289,233.177 341.016,233.651 341.016 C 236.157 341.016,238.235 339.094,237.177 337.756 C 236.981 337.508,236.597 336.602,236.323 335.742 C 236.050 334.883,235.588 333.833,235.296 333.409 C 235.004 332.985,234.766 332.411,234.766 332.132 C 234.766 331.853,234.326 330.929,233.789 330.078 C 233.252 329.227,232.813 328.264,232.813 327.937 C 232.813 327.611,232.637 327.344,232.422 327.344 C 232.207 327.344,232.031 327.077,232.031 326.750 C 232.031 326.424,231.592 325.460,231.055 324.609 C 230.518 323.759,230.078 322.883,230.078 322.664 C 230.078 322.445,229.902 322.266,229.688 322.266 C 229.473 322.266,229.297 322.002,229.297 321.680 C 229.297 321.357,229.121 321.094,228.906 321.094 C 228.691 321.094,228.516 320.823,228.516 320.491 C 228.516 320.160,228.331 319.677,228.105 319.417 C 227.275 318.463,225.000 315.019,224.763 314.355 C 224.628 313.979,224.367 313.672,224.183 313.672 C 223.999 313.672,223.554 313.101,223.195 312.402 C 222.835 311.704,221.952 310.442,221.232 309.598 C 220.511 308.753,219.922 307.840,219.922 307.569 C 219.922 307.298,219.611 306.846,219.231 306.565 C 218.852 306.284,218.225 305.560,217.838 304.954 C 217.452 304.349,216.839 303.541,216.478 303.158 C 215.343 301.955,214.453 300.784,214.448 300.484 C 214.446 300.325,213.732 299.404,212.862 298.438 C 211.992 297.471,210.676 296.009,209.937 295.190 C 209.198 294.371,208.594 293.590,208.594 293.455 C 208.594 293.320,207.891 292.554,207.031 291.752 C 206.172 290.951,205.469 290.018,205.469 289.679 C 205.469 289.340,205.225 289.063,204.928 289.063 C 204.630 289.063,204.076 288.579,203.697 287.988 C 202.976 286.866,202.190 285.992,198.145 281.813 C 196.802 280.425,195.703 279.028,195.703 278.708 C 195.703 278.382,195.353 278.125,194.910 278.125 C 194.473 278.125,194.024 277.884,193.910 277.589 C 193.591 276.757,185.320 268.359,184.820 268.359 C 184.575 268.359,184.375 268.008,184.375 267.578 C 184.375 267.148,184.184 266.797,183.950 266.797 C 183.717 266.797,182.585 265.874,181.434 264.746 C 180.284 263.618,178.546 261.992,177.571 261.133 C 176.596 260.273,175.794 259.351,175.790 259.082 C 175.785 258.813,175.505 258.594,175.167 258.594 C 174.830 258.594,174.290 258.330,173.968 258.008 C 173.645 257.686,173.481 257.422,173.601 257.422 C 174.037 257.422,171.377 255.097,170.693 254.879 C 170.307 254.757,169.708 254.224,169.362 253.696 C 169.015 253.167,168.484 252.734,168.181 252.734 C 167.879 252.734,167.519 252.383,167.383 251.953 C 167.246 251.523,166.795 251.172,166.380 251.172 C 165.965 251.172,165.623 250.952,165.620 250.684 C 165.617 250.415,164.792 249.492,163.788 248.633 C 162.783 247.773,161.611 246.675,161.184 246.191 C 160.756 245.708,160.257 245.313,160.075 245.313 C 159.760 245.313,157.950 243.789,156.012 241.895 C 155.518 241.411,154.980 241.016,154.817 241.016 C 154.653 241.016,154.108 240.620,153.606 240.137 C 151.495 238.107,150.904 237.641,149.512 236.915 C 148.706 236.494,148.047 236.030,148.047 235.883 C 148.047 235.736,146.860 234.772,145.410 233.741 C 143.960 232.709,142.336 231.463,141.801 230.972 C 141.266 230.480,140.607 230.078,140.336 230.078 C 140.065 230.078,139.844 229.805,139.844 229.472 C 139.844 229.138,139.313 228.680,138.664 228.454 C 138.015 228.228,137.305 227.710,137.087 227.303 C 136.870 226.896,136.434 226.563,136.119 226.563 C 135.804 226.563,135.547 226.387,135.547 226.172 C 135.547 225.957,135.207 225.781,134.792 225.781 C 134.377 225.781,133.929 225.442,133.798 225.027 C 133.665 224.608,133.054 224.162,132.422 224.023 C 131.797 223.886,131.184 223.455,131.061 223.066 C 130.937 222.675,130.306 222.253,129.650 222.121 C 128.998 221.991,128.562 221.726,128.682 221.532 C 128.801 221.338,128.286 220.888,127.536 220.532 C 126.786 220.176,126.172 219.718,126.172 219.513 C 126.172 219.308,125.934 219.141,125.643 219.141 C 125.352 219.141,124.640 218.701,124.060 218.164 C 123.481 217.627,122.931 217.188,122.839 217.188 C 122.494 217.188,118.159 214.309,118.034 213.997 C 117.962 213.818,117.649 213.672,117.338 213.672 C 117.027 213.672,116.671 213.408,116.548 213.086 C 116.424 212.764,116.070 212.500,115.761 212.500 C 115.453 212.500,114.745 212.078,114.188 211.562 C 113.632 211.046,112.687 210.526,112.089 210.406 C 111.484 210.285,110.894 209.852,110.760 209.432 C 110.614 208.970,110.027 208.583,109.251 208.438 C 108.553 208.307,107.730 207.849,107.421 207.420 C 107.112 206.991,106.655 206.641,106.407 206.641 C 106.158 206.641,105.736 206.377,105.469 206.055 C 105.201 205.732,104.683 205.469,104.317 205.469 C 103.951 205.469,103.239 205.029,102.734 204.492 C 102.230 203.955,101.523 203.516,101.165 203.516 C 100.806 203.516,100.001 203.072,99.377 202.529 C 98.753 201.986,97.803 201.431,97.266 201.295 C 96.729 201.159,95.762 200.662,95.117 200.191 C 94.473 199.720,93.638 199.226,93.262 199.093 C 92.886 198.961,92.578 198.693,92.578 198.499 C 92.578 198.304,92.022 198.033,91.341 197.897 C 90.661 197.761,89.530 197.212,88.828 196.676 C 88.126 196.141,87.310 195.703,87.015 195.703 C 86.719 195.703,86.136 195.445,85.719 195.130 C 85.302 194.814,84.653 194.551,84.277 194.544 C 83.901 194.537,83.594 194.268,83.594 193.945 C 83.594 193.560,83.208 193.359,82.470 193.359 C 81.851 193.359,81.127 193.096,80.859 192.773 C 80.592 192.451,80.056 192.188,79.668 192.188 C 79.280 192.188,78.698 191.924,78.376 191.602 C 78.054 191.279,77.523 191.016,77.196 191.016 C 76.869 191.016,76.461 190.780,76.289 190.492 C 76.117 190.204,75.129 189.759,74.093 189.503 C 73.058 189.247,71.519 188.601,70.675 188.068 C 69.830 187.535,67.909 186.803,66.405 186.443 C 64.902 186.082,63.672 185.651,63.672 185.486 C 63.672 185.321,62.925 184.987,62.012 184.744 C 61.099 184.501,60.088 184.080,59.766 183.809 C 59.216 183.346,48.324 180.469,47.123 180.469 C 46.799 180.469,46.447 181.075,46.270 181.934 M55.469 207.690 C 54.932 207.778,54.229 207.958,53.906 208.089 C 53.584 208.220,53.180 208.296,53.009 208.259 C 52.385 208.122,48.965 210.764,46.658 213.164 C 45.357 214.518,44.083 215.625,43.826 215.625 C 43.569 215.625,43.359 215.801,43.359 216.016 C 43.359 216.230,43.008 216.406,42.578 216.406 C 42.148 216.406,41.797 216.582,41.797 216.797 C 41.797 217.012,41.552 217.188,41.253 217.188 C 40.953 217.188,40.607 217.451,40.484 217.773 C 40.360 218.096,39.990 218.359,39.661 218.359 C 39.332 218.359,39.063 218.535,39.063 218.750 C 39.063 218.965,38.730 219.141,38.323 219.141 C 37.916 219.141,37.482 219.405,37.359 219.727 C 37.235 220.050,36.469 220.621,35.657 220.997 C 34.844 221.372,33.839 221.987,33.422 222.363 C 33.006 222.739,32.449 223.047,32.185 223.047 C 31.922 223.047,31.647 223.185,31.576 223.354 C 31.504 223.523,30.566 224.168,29.492 224.786 C 28.418 225.405,26.818 226.497,25.936 227.213 C 25.055 227.930,24.208 228.516,24.054 228.516 C 23.900 228.516,23.039 229.017,22.141 229.630 C 21.243 230.242,20.332 230.816,20.117 230.905 C 19.049 231.348,16.797 232.932,16.797 233.242 C 16.797 233.435,16.542 233.594,16.230 233.594 C 15.919 233.594,15.523 233.813,15.351 234.082 C 15.180 234.351,14.619 234.807,14.107 235.095 C 7.653 238.729,6.839 239.287,6.711 240.162 C 6.622 240.772,6.789 241.017,7.297 241.019 C 7.688 241.021,8.887 241.455,9.961 241.984 C 11.035 242.512,12.134 242.950,12.402 242.957 C 12.671 242.963,12.891 243.130,12.891 243.327 C 12.891 243.525,14.027 243.945,15.416 244.262 C 16.805 244.579,18.223 245.121,18.569 245.466 C 18.914 245.811,19.535 246.094,19.950 246.094 C 20.364 246.094,20.703 246.246,20.703 246.431 C 20.703 246.616,21.747 246.990,23.024 247.261 C 24.300 247.532,25.431 247.978,25.536 248.254 C 25.642 248.529,26.312 248.876,27.024 249.025 C 27.737 249.174,28.674 249.519,29.107 249.792 C 29.540 250.065,30.497 250.421,31.234 250.582 C 31.970 250.744,32.794 251.098,33.064 251.368 C 33.334 251.638,34.223 251.981,35.039 252.131 C 36.458 252.391,39.824 253.828,40.234 254.349 C 40.342 254.485,41.572 254.908,42.969 255.288 C 44.365 255.668,45.785 256.216,46.125 256.505 C 46.464 256.795,47.022 257.031,47.366 257.031 C 47.710 257.031,48.233 257.273,48.529 257.570 C 48.825 257.866,49.673 258.234,50.413 258.389 C 51.153 258.544,52.149 258.918,52.627 259.221 C 53.940 260.052,65.770 263.041,65.924 262.580 C 66.000 262.351,66.492 262.304,67.107 262.469 C 68.885 262.944,72.846 261.297,75.324 259.052 C 76.112 258.337,77.153 257.482,77.637 257.151 C 78.120 256.821,78.516 256.378,78.516 256.168 C 78.516 255.957,78.911 255.233,79.395 254.558 C 83.383 248.992,84.555 237.757,82.010 229.492 C 81.547 227.988,81.035 226.582,80.872 226.367 C 80.710 226.152,80.470 225.537,80.340 225.000 C 80.209 224.463,79.482 223.085,78.723 221.939 C 77.965 220.792,77.344 219.702,77.344 219.517 C 77.344 219.331,77.115 219.039,76.836 218.867 C 76.557 218.695,75.920 217.970,75.421 217.255 C 73.930 215.120,70.128 211.328,69.477 211.328 C 69.144 211.328,68.377 210.904,67.773 210.385 C 67.061 209.772,65.260 209.086,62.646 208.431 C 58.773 207.461,57.593 207.339,55.469 207.690 M319.863 258.002 C 319.754 258.111,318.757 258.286,317.648 258.392 C 316.538 258.497,315.321 258.734,314.944 258.918 C 311.802 260.447,310.695 260.940,310.403 260.939 C 309.939 260.937,305.368 263.715,304.883 264.294 C 304.668 264.550,303.745 265.220,302.832 265.783 C 301.919 266.346,301.172 266.968,301.172 267.166 C 301.172 267.364,300.820 267.637,300.391 267.773 C 299.961 267.910,299.609 268.273,299.609 268.581 C 299.609 268.889,299.358 269.141,299.052 269.141 C 298.745 269.141,298.153 269.574,297.736 270.104 C 297.320 270.634,296.867 270.956,296.732 270.820 C 296.596 270.684,296.484 270.866,296.484 271.224 C 296.484 271.582,296.309 271.875,296.094 271.875 C 295.879 271.875,295.703 272.139,295.703 272.461 C 295.703 272.783,295.502 273.047,295.257 273.047 C 294.835 273.047,292.578 275.172,292.578 275.569 C 292.578 275.672,291.963 276.370,291.211 277.122 C 290.459 277.874,289.844 278.646,289.844 278.836 C 289.844 279.027,289.448 279.615,288.965 280.144 C 288.481 280.673,287.471 282.367,286.719 283.910 C 285.967 285.452,285.220 286.715,285.059 286.716 C 284.897 286.718,284.766 286.923,284.766 287.173 C 284.766 287.423,284.255 288.433,283.632 289.419 C 283.008 290.405,282.277 292.222,282.007 293.457 C 281.737 294.692,281.375 295.703,281.203 295.703 C 280.766 295.703,279.989 298.654,279.838 300.889 C 279.769 301.915,279.524 303.452,279.295 304.305 C 278.997 305.410,278.998 306.082,279.298 306.643 C 279.530 307.076,279.677 307.648,279.624 307.915 C 279.572 308.181,279.833 308.970,280.204 309.668 C 280.576 310.366,280.772 310.938,280.641 310.938 C 280.510 310.938,280.945 311.622,281.608 312.459 C 282.270 313.295,282.813 314.171,282.813 314.404 C 282.813 314.994,284.670 315.404,285.259 314.944 C 286.311 314.121,287.641 314.190,291.684 315.275 C 294.002 315.897,296.535 316.406,297.312 316.406 C 298.090 316.406,302.660 317.353,307.469 318.510 C 312.277 319.667,316.475 320.605,316.797 320.596 C 317.430 320.576,322.054 321.618,330.587 323.703 C 333.553 324.428,336.137 324.923,336.330 324.803 C 336.523 324.684,338.492 325.052,340.704 325.620 C 342.916 326.189,345.254 326.643,345.898 326.628 C 346.543 326.613,349.839 327.269,353.223 328.085 C 359.756 329.661,359.936 329.636,358.538 327.344 C 358.079 326.592,357.396 325.082,357.020 323.989 C 356.643 322.896,356.141 321.621,355.902 321.157 C 354.815 319.039,354.688 318.725,354.688 318.169 C 354.688 317.844,354.512 317.578,354.297 317.578 C 354.082 317.578,353.906 317.312,353.906 316.987 C 353.906 316.662,353.751 316.090,353.561 315.717 C 353.371 315.344,353.038 314.600,352.821 314.063 C 352.467 313.189,351.529 311.049,349.994 307.617 C 349.706 306.973,349.457 306.328,349.442 306.185 C 349.427 306.042,349.282 305.793,349.121 305.632 C 348.960 305.470,348.824 304.972,348.819 304.525 C 348.815 304.077,348.467 303.271,348.047 302.734 C 347.627 302.197,347.279 301.565,347.274 301.330 C 347.270 301.094,346.964 300.303,346.595 299.572 C 346.227 298.840,345.918 298.066,345.909 297.852 C 345.901 297.637,345.346 296.318,344.676 294.922 C 344.005 293.525,343.145 291.542,342.764 290.515 C 342.383 289.487,341.922 288.554,341.739 288.441 C 341.556 288.328,341.406 287.939,341.406 287.578 C 341.406 287.217,340.780 285.601,340.015 283.988 C 337.924 279.579,337.600 278.841,337.059 277.246 C 336.786 276.440,336.421 275.781,336.250 275.781 C 336.078 275.781,335.938 275.515,335.938 275.190 C 335.938 274.865,335.788 274.294,335.604 273.920 C 335.421 273.547,335.007 272.627,334.683 271.875 C 334.360 271.123,333.719 269.698,333.259 268.707 C 332.798 267.717,332.422 266.687,332.422 266.419 C 332.422 265.761,328.557 260.938,328.031 260.938 C 327.801 260.938,327.069 260.527,326.404 260.025 C 325.739 259.524,324.316 258.900,323.242 258.640 C 322.168 258.381,321.013 258.086,320.675 257.986 C 320.337 257.886,319.972 257.893,319.863 258.002 M79.893 280.003 C 79.752 280.143,79.078 280.282,78.393 280.311 C 75.338 280.440,72.754 281.987,72.409 283.893 C 72.302 284.480,71.075 289.402,69.681 294.829 C 68.288 300.257,67.253 304.869,67.383 305.078 C 67.512 305.288,67.098 307.614,66.461 310.249 C 65.825 312.884,65.306 315.479,65.308 316.016 C 65.310 316.553,64.335 320.868,63.141 325.606 C 61.947 330.343,61.065 334.584,61.182 335.030 C 61.298 335.476,60.685 338.543,59.819 341.846 C 58.953 345.149,58.241 348.555,58.238 349.414 C 58.234 350.273,57.631 353.300,56.897 356.139 C 55.670 360.884,55.379 365.006,56.386 363.377 C 56.552 363.109,56.984 362.887,57.347 362.882 C 57.711 362.877,58.447 362.530,58.984 362.109 C 59.521 361.689,60.232 361.342,60.564 361.337 C 60.896 361.332,62.654 360.617,64.470 359.748 C 66.287 358.879,68.564 357.802,69.531 357.355 C 70.498 356.909,71.904 356.257,72.656 355.908 C 73.408 355.559,74.082 355.142,74.154 354.980 C 74.225 354.819,74.577 354.682,74.935 354.675 C 75.293 354.668,75.927 354.405,76.344 354.089 C 76.761 353.774,77.352 353.516,77.657 353.516 C 78.117 353.516,82.178 351.730,84.858 350.349 C 85.231 350.157,85.788 350.000,86.095 350.000 C 86.402 350.000,86.712 349.859,86.784 349.686 C 86.855 349.513,88.101 348.871,89.551 348.260 C 91.001 347.649,92.188 347.028,92.188 346.882 C 92.188 346.735,92.420 346.615,92.705 346.615 C 93.233 346.615,98.628 344.460,100.391 343.545 C 101.271 343.088,103.808 342.060,104.297 341.962 C 104.404 341.941,105.508 341.455,106.749 340.883 C 107.991 340.312,109.177 339.844,109.386 339.844 C 109.595 339.844,109.766 339.706,109.766 339.538 C 109.766 339.370,110.601 338.989,111.621 338.690 C 112.642 338.392,115.278 337.048,117.480 335.703 C 119.683 334.358,121.484 333.335,121.484 333.429 C 121.484 333.523,122.421 333.072,123.567 332.425 C 124.712 331.779,125.909 331.250,126.227 331.250 C 128.050 331.250,130.093 327.553,130.275 323.923 C 130.404 321.357,129.879 319.482,127.677 314.648 C 126.636 312.363,123.758 307.761,123.247 307.565 C 122.961 307.455,122.515 306.851,122.254 306.222 C 121.993 305.593,121.638 305.078,121.463 305.078 C 121.289 305.078,121.035 304.727,120.898 304.297 C 120.762 303.867,120.419 303.516,120.136 303.516 C 119.853 303.516,119.357 303.120,119.033 302.637 C 118.014 301.113,115.027 298.047,114.561 298.047 C 114.316 298.047,114.004 297.695,113.867 297.266 C 113.731 296.836,113.473 296.484,113.294 296.484 C 113.115 296.484,112.376 295.913,111.650 295.215 C 109.941 293.569,108.259 292.188,107.964 292.188 C 107.763 292.188,106.860 291.516,104.802 289.838 C 104.542 289.626,104.189 289.453,104.016 289.453 C 103.844 289.453,103.237 289.021,102.667 288.493 C 102.097 287.964,101.138 287.408,100.534 287.257 C 99.931 287.105,99.010 286.585,98.488 286.101 C 97.966 285.617,96.963 285.113,96.259 284.981 C 95.555 284.849,94.922 284.615,94.853 284.460 C 94.664 284.040,91.218 282.422,90.512 282.422 C 90.175 282.422,89.655 282.177,89.356 281.878 C 88.544 281.066,80.436 279.460,79.893 280.003 M177.599 315.109 C 177.561 315.147,176.572 315.288,175.402 315.422 C 174.231 315.556,173.091 315.810,172.867 315.987 C 172.433 316.330,170.204 316.815,168.992 316.829 C 168.588 316.834,167.358 317.402,166.258 318.091 C 165.158 318.780,163.754 319.602,163.137 319.919 C 162.521 320.235,161.642 320.890,161.184 321.373 C 160.726 321.857,160.132 322.255,159.863 322.259 C 159.595 322.263,159.375 322.449,159.375 322.673 C 159.375 322.898,158.936 323.555,158.398 324.134 C 157.861 324.713,157.422 325.409,157.422 325.680 C 157.422 325.950,157.246 326.172,157.031 326.172 C 156.816 326.172,156.641 326.427,156.641 326.738 C 156.641 327.050,156.406 327.446,156.118 327.617 C 155.330 328.089,154.375 332.396,154.750 333.789 C 154.924 334.434,154.973 335.254,154.861 335.612 C 154.748 335.970,154.839 336.375,155.062 336.514 C 155.286 336.652,155.469 337.180,155.469 337.687 C 155.469 338.194,155.762 339.194,156.121 339.910 C 157.331 342.324,157.422 342.566,157.422 343.354 C 157.422 343.787,157.598 344.141,157.813 344.141 C 158.027 344.141,158.203 344.325,158.203 344.550 C 158.203 344.775,158.818 345.921,159.570 347.097 C 160.322 348.272,160.938 349.406,160.938 349.617 C 160.938 349.828,161.113 350.000,161.328 350.000 C 161.543 350.000,161.719 350.153,161.719 350.341 C 161.719 350.620,164.432 355.206,169.954 364.258 C 170.347 364.902,171.144 366.265,171.724 367.285 C 172.305 368.306,172.928 369.141,173.109 369.141 C 173.290 369.141,173.438 369.410,173.438 369.739 C 173.438 370.068,173.711 370.442,174.046 370.570 C 174.380 370.699,174.562 371.045,174.449 371.339 C 174.332 371.643,174.491 371.875,174.817 371.875 C 175.132 371.875,175.391 372.049,175.391 372.262 C 175.391 372.474,176.182 373.882,177.148 375.391 C 178.115 376.899,178.906 378.188,178.906 378.254 C 178.906 378.412,184.761 388.146,185.713 389.570 C 186.552 390.827,187.768 390.862,188.437 389.648 C 188.673 389.219,188.968 388.779,189.091 388.672 C 189.215 388.564,189.549 387.598,189.834 386.523 C 190.120 385.449,190.571 384.307,190.836 383.984 C 191.102 383.662,191.446 382.783,191.602 382.031 C 191.757 381.279,192.104 380.400,192.374 380.078 C 192.643 379.756,192.989 378.965,193.142 378.320 C 193.295 377.676,193.648 376.885,193.926 376.563 C 194.204 376.240,194.648 375.053,194.911 373.925 C 195.175 372.796,195.549 371.775,195.742 371.655 C 195.936 371.536,196.094 371.124,196.094 370.740 C 196.094 370.356,196.421 369.664,196.821 369.203 C 197.221 368.741,197.773 367.308,198.046 366.018 C 198.320 364.728,198.682 363.672,198.850 363.672 C 199.019 363.672,199.269 363.159,199.407 362.533 C 199.545 361.906,199.892 361.303,200.179 361.193 C 200.478 361.078,200.903 359.799,201.172 358.203 C 201.431 356.669,201.866 355.328,202.140 355.223 C 202.414 355.118,202.859 353.987,203.130 352.711 C 203.401 351.435,203.774 350.391,203.960 350.391 C 204.145 350.391,204.297 350.121,204.297 349.792 C 204.297 349.463,204.561 349.093,204.883 348.969 C 205.205 348.846,205.469 348.492,205.469 348.183 C 205.469 347.875,205.891 347.166,206.408 346.609 C 206.924 346.053,207.576 345.137,207.856 344.576 C 208.136 344.014,208.577 343.291,208.836 342.969 C 209.379 342.293,210.590 337.886,210.343 337.486 C 210.252 337.338,210.102 336.622,210.011 335.894 C 209.725 333.609,208.317 330.152,206.667 327.681 C 205.793 326.372,205.078 325.146,205.078 324.955 C 205.078 324.765,204.908 324.609,204.701 324.609 C 204.493 324.609,203.708 323.994,202.956 323.242 C 202.204 322.490,201.361 321.875,201.084 321.875 C 200.806 321.875,200.373 321.546,200.121 321.143 C 199.870 320.740,199.176 320.288,198.579 320.139 C 197.982 319.989,197.086 319.458,196.587 318.959 C 196.087 318.460,195.028 317.929,194.233 317.780 C 193.438 317.631,192.445 317.325,192.026 317.101 C 191.606 316.876,190.610 316.644,189.812 316.585 C 189.014 316.525,187.948 316.247,187.442 315.967 C 186.937 315.687,185.996 315.408,185.352 315.347 C 183.852 315.206,177.692 315.017,177.599 315.109 " stroke="none" fill="#eb934c" fill-rule="evenodd"></path><path id="path1" d="M228.514 36.230 C 229.026 36.929,229.505 37.500,229.579 37.500 C 229.876 37.500,228.908 36.035,228.267 35.515 C 227.845 35.172,227.939 35.445,228.514 36.230 M307.813 43.750 C 306.846 44.156,306.318 44.484,306.641 44.480 C 307.297 44.472,310.574 43.031,309.961 43.020 C 309.746 43.016,308.779 43.344,307.813 43.750 M175.488 51.965 C 174.180 52.491,174.425 52.758,175.781 52.285 C 176.426 52.061,176.953 51.806,176.953 51.720 C 176.953 51.488,176.478 51.568,175.488 51.965 M239.484 59.398 C 239.467 59.733,239.726 60.348,240.061 60.765 C 240.658 61.511,240.662 61.511,240.309 60.742 C 240.111 60.313,239.852 59.697,239.732 59.375 C 239.544 58.869,239.511 58.872,239.484 59.398 M179.571 66.784 C 179.681 67.207,180.012 67.752,180.305 67.995 C 180.708 68.330,180.691 68.142,180.234 67.227 C 179.544 65.842,179.278 65.665,179.571 66.784 M41.437 80.882 C 41.420 81.217,41.680 81.833,42.014 82.250 C 42.612 82.996,42.615 82.995,42.262 82.227 C 42.064 81.797,41.805 81.182,41.685 80.859 C 41.498 80.353,41.464 80.356,41.437 80.882 M292.188 81.063 C 292.188 81.134,292.732 81.465,293.399 81.797 C 294.314 82.254,294.502 82.271,294.167 81.868 C 293.768 81.387,292.188 80.744,292.188 81.063 M302.992 90.234 C 303.601 90.879,304.148 91.406,304.207 91.406 C 304.548 91.406,302.978 89.480,302.482 89.290 C 302.154 89.164,302.384 89.589,302.992 90.234 M307.392 104.831 C 308.450 105.979,308.658 106.092,308.379 105.363 C 308.274 105.090,307.796 104.627,307.317 104.335 C 306.486 103.828,306.489 103.851,307.392 104.831 M106.641 112.891 C 106.182 113.535,105.894 114.063,106.001 114.063 C 106.109 114.063,106.572 113.535,107.031 112.891 C 107.490 112.246,107.778 111.719,107.670 111.719 C 107.563 111.719,107.100 112.246,106.641 112.891 M212.699 119.927 C 212.830 120.139,213.175 120.313,213.467 120.313 C 213.759 120.313,214.087 120.493,214.196 120.713 C 214.305 120.933,214.355 120.906,214.306 120.653 C 214.257 120.399,213.822 120.046,213.339 119.867 C 212.781 119.661,212.547 119.683,212.699 119.927 M96.756 125.208 C 96.153 125.738,95.815 126.172,96.004 126.172 C 96.193 126.172,96.761 125.732,97.266 125.195 C 98.433 123.953,98.175 123.959,96.756 125.208 M62.921 132.896 C 62.905 133.265,63.286 133.758,63.770 133.992 C 64.515 134.353,64.554 134.341,64.028 133.908 C 63.687 133.628,63.305 133.135,63.180 132.813 C 62.995 132.338,62.946 132.353,62.921 132.896 M308.964 139.670 C 308.448 140.219,308.290 140.567,308.611 140.444 C 309.120 140.249,310.384 138.672,310.032 138.672 C 309.961 138.672,309.480 139.121,308.964 139.670 M83.398 142.578 C 83.266 142.793,82.826 142.969,82.422 142.969 C 82.018 142.969,81.588 143.128,81.468 143.323 C 81.347 143.518,81.645 143.578,82.128 143.458 C 83.182 143.195,84.740 142.188,84.094 142.188 C 83.844 142.188,83.531 142.363,83.398 142.578 M236.328 150.935 C 236.328 151.230,236.680 151.563,237.109 151.676 C 237.539 151.788,237.891 151.848,237.891 151.808 C 237.891 151.768,237.539 151.435,237.109 151.067 C 236.511 150.555,236.328 150.524,236.328 150.935 M171.490 155.451 C 170.956 155.861,170.605 156.274,170.709 156.368 C 170.813 156.462,171.334 156.122,171.867 155.613 C 173.029 154.502,172.834 154.418,171.490 155.451 M242.148 158.398 C 242.807 159.673,243.348 160.379,243.345 159.961 C 243.343 159.746,242.983 159.131,242.543 158.594 C 242.013 157.945,241.880 157.880,242.148 158.398 M167.189 160.741 C 166.685 161.277,166.347 161.781,166.437 161.861 C 166.528 161.941,167.010 161.502,167.510 160.886 C 168.629 159.507,168.432 159.418,167.189 160.741 M360.409 170.489 C 359.840 171.016,359.381 171.587,359.387 171.759 C 359.394 171.930,359.614 171.799,359.876 171.466 C 360.137 171.134,360.786 170.563,361.317 170.197 C 361.849 169.831,362.094 169.531,361.863 169.531 C 361.631 169.531,360.977 169.962,360.409 170.489 M357.988 172.241 C 357.784 172.443,357.090 172.881,356.445 173.215 C 355.801 173.550,355.537 173.824,355.859 173.824 C 356.396 173.824,359.066 171.921,358.574 171.889 C 358.456 171.881,358.192 172.040,357.988 172.241 M346.680 177.734 C 346.547 177.949,346.053 178.145,345.582 178.170 C 344.933 178.205,344.890 178.258,345.403 178.393 C 345.775 178.490,346.473 178.294,346.955 177.957 C 347.436 177.620,347.626 177.344,347.376 177.344 C 347.126 177.344,346.812 177.520,346.680 177.734 M337.500 183.238 C 336.851 183.769,336.786 183.901,337.305 183.633 C 338.579 182.975,339.285 182.434,338.867 182.437 C 338.652 182.438,338.037 182.799,337.500 183.238 M309.656 184.387 C 309.770 184.824,310.237 185.361,310.693 185.581 C 311.451 185.946,311.464 185.933,310.840 185.428 C 310.464 185.124,310.156 184.685,310.156 184.453 C 310.156 184.220,309.997 183.932,309.802 183.812 C 309.607 183.691,309.541 183.950,309.656 184.387 M160.845 188.494 C 160.947 189.028,161.160 189.545,161.318 189.642 C 161.476 189.740,161.522 189.383,161.420 188.850 C 161.318 188.316,161.105 187.799,160.947 187.701 C 160.789 187.604,160.743 187.960,160.845 188.494 M321.054 198.633 C 321.713 199.907,322.254 200.613,322.251 200.195 C 322.249 199.980,321.889 199.365,321.449 198.828 C 320.919 198.179,320.786 198.114,321.054 198.633 M82.501 215.599 C 82.988 216.444,83.453 217.068,83.534 216.987 C 83.703 216.818,82.062 214.063,81.792 214.063 C 81.696 214.063,82.015 214.754,82.501 215.599 M164.424 216.160 C 165.481 217.307,165.690 217.420,165.410 216.691 C 165.305 216.418,164.827 215.955,164.348 215.663 C 163.517 215.156,163.520 215.179,164.424 216.160 M311.587 216.726 C 311.690 217.118,312.215 217.953,312.755 218.583 L 313.736 219.727 312.923 218.494 C 312.475 217.817,312.109 217.080,312.109 216.857 C 312.109 216.635,311.950 216.354,311.755 216.233 C 311.560 216.113,311.485 216.335,311.587 216.726 M213.086 220.600 C 212.110 220.846,210.602 221.875,211.218 221.875 C 211.468 221.875,211.781 221.699,211.914 221.484 C 212.047 221.270,212.486 221.094,212.891 221.094 C 213.295 221.094,213.734 220.918,213.867 220.703 C 214.000 220.488,214.054 220.333,213.988 220.358 C 213.922 220.383,213.516 220.492,213.086 220.600 M24.512 227.767 C 23.622 228.742,24.025 228.725,25.284 227.734 C 25.830 227.305,26.034 226.968,25.736 226.986 C 25.439 227.004,24.888 227.355,24.512 227.767 M209.938 231.076 C 209.192 231.674,209.192 231.678,209.961 231.324 C 210.391 231.127,211.006 230.867,211.328 230.748 C 211.834 230.560,211.831 230.526,211.305 230.500 C 210.970 230.483,210.355 230.742,209.938 231.076 M89.063 232.204 C 89.063 232.728,89.206 233.246,89.382 233.355 C 89.558 233.464,89.626 233.034,89.533 232.401 C 89.329 231.005,89.063 230.893,89.063 232.204 M169.372 253.711 C 169.724 254.248,170.166 254.688,170.355 254.688 C 170.544 254.688,170.316 254.248,169.849 253.711 C 169.382 253.174,168.939 252.734,168.866 252.734 C 168.792 252.734,169.020 253.174,169.372 253.711 M325.391 259.126 C 325.391 259.234,325.918 259.697,326.563 260.156 C 327.207 260.615,327.734 260.903,327.734 260.795 C 327.734 260.688,327.207 260.225,326.563 259.766 C 325.918 259.307,325.391 259.019,325.391 259.126 M333.886 270.019 C 334.149 271.072,335.156 272.631,335.156 271.985 C 335.156 271.735,334.980 271.422,334.766 271.289 C 334.551 271.156,334.375 270.717,334.375 270.313 C 334.375 269.908,334.216 269.479,334.021 269.358 C 333.826 269.238,333.765 269.535,333.886 270.019 M282.926 276.465 C 282.788 276.841,282.486 277.294,282.255 277.471 C 281.985 277.679,282.031 277.741,282.385 277.646 C 282.893 277.510,283.809 275.781,283.374 275.781 C 283.266 275.781,283.065 276.089,282.926 276.465 M222.151 282.227 C 222.751 282.978,223.378 283.594,223.545 283.594 C 223.711 283.594,223.287 282.979,222.603 282.227 C 221.001 280.467,220.747 280.467,222.151 282.227 M97.656 285.272 C 97.656 285.346,98.096 285.788,98.633 286.255 C 99.170 286.722,99.609 286.950,99.609 286.761 C 99.609 286.572,99.170 286.130,98.633 285.778 C 98.096 285.426,97.656 285.198,97.656 285.272 M350.405 308.594 C 350.411 308.916,350.674 309.521,350.989 309.938 C 351.726 310.913,351.722 310.551,350.979 309.127 C 350.658 308.511,350.400 308.271,350.405 308.594 M281.321 312.695 C 281.566 313.232,281.918 313.672,282.103 313.672 C 282.288 313.672,282.152 313.232,281.800 312.695 C 281.448 312.158,281.096 311.719,281.018 311.719 C 280.940 311.719,281.076 312.158,281.321 312.695 M286.523 314.341 C 286.094 314.444,285.578 314.685,285.378 314.875 C 285.178 315.065,285.597 315.053,286.310 314.849 C 288.323 314.272,288.493 313.867,286.523 314.341 M156.055 315.234 C 155.410 315.661,155.059 316.008,155.273 316.004 C 155.665 315.998,157.789 314.476,157.422 314.464 C 157.314 314.461,156.699 314.808,156.055 315.234 M128.906 317.264 C 128.906 317.387,129.169 317.992,129.490 318.608 C 129.811 319.223,130.069 319.463,130.063 319.141 C 130.058 318.818,129.795 318.213,129.480 317.796 C 129.164 317.379,128.906 317.140,128.906 317.264 M250.418 322.178 C 250.660 322.871,251.018 323.538,251.213 323.658 C 251.409 323.779,251.358 323.383,251.101 322.779 C 250.411 321.158,249.909 320.715,250.418 322.178 M215.078 342.227 C 214.621 343.142,214.604 343.330,215.007 342.995 C 215.488 342.596,216.131 341.016,215.812 341.016 C 215.741 341.016,215.410 341.561,215.078 342.227 M208.702 343.066 C 208.259 343.639,207.768 344.922,207.991 344.922 C 208.076 344.922,208.409 344.395,208.731 343.750 C 209.346 342.516,209.335 342.249,208.702 343.066 M218.945 344.922 C 218.453 345.133,218.381 345.258,218.750 345.258 C 219.072 345.258,219.688 345.107,220.117 344.922 C 220.610 344.710,220.682 344.586,220.313 344.586 C 219.990 344.586,219.375 344.737,218.945 344.922 " stroke="none" fill="#f0b68d" fill-rule="evenodd"></path></g></svg>