<svg id="svg" version="1.1" xmlns="http://www.w3.org/2000/svg" xmlns:xlink="http://www.w3.org/1999/xlink" width="400" height="400" viewBox="0, 0, 400,400"><g id="svgg"><path id="path0" d="M133.917 3.500 C 133.689 3.775,133.659 4.000,133.851 4.000 C 134.091 4.000,134.221 116.053,134.002 134.400 C 134.001 134.510,104.987 134.552,69.526 134.494 C 26.880 134.424,4.916 134.524,4.651 134.789 C 4.384 135.056,4.010 134.971,3.525 134.533 C 3.126 134.171,2.799 133.994,2.798 134.138 C 2.422 188.008,2.886 263.686,3.596 264.396 C 4.508 265.308,4.704 264.999,3.829 264.031 C 3.308 263.456,9.097 263.400,68.629 263.400 C 111.941 263.400,134.001 263.535,134.003 263.800 C 134.216 292.195,133.882 393.773,133.576 393.694 C 133.304 393.624,133.310 393.859,133.594 394.388 C 134.019 395.183,134.385 395.187,198.111 395.084 C 263.164 394.977,263.230 394.976,264.104 393.995 C 264.519 393.529,264.495 393.518,263.953 393.924 C 263.438 394.311,263.210 394.294,262.834 393.841 C 262.511 393.452,262.494 393.189,262.781 393.012 C 263.357 392.656,263.371 265.353,262.795 264.997 C 262.566 264.855,262.531 264.494,262.715 264.166 C 263.277 263.162,393.715 263.119,393.452 264.123 C 393.299 264.706,393.372 264.755,393.827 264.378 C 394.307 263.979,394.392 254.407,394.398 199.408 L 394.405 134.905 392.902 134.657 C 390.045 134.185,264.997 134.363,264.520 134.840 C 264.200 135.160,263.840 135.040,263.200 134.400 C 262.560 133.760,262.440 133.400,262.760 133.080 C 263.356 132.484,263.389 5.364,262.793 4.996 C 262.144 4.595,262.815 3.911,263.645 4.128 C 264.757 4.418,264.563 4.042,263.368 3.588 C 261.694 2.951,134.444 2.865,133.917 3.500 M37.131 265.100 C 54.584 265.158,83.024 265.158,100.331 265.100 C 117.639 265.042,103.360 264.995,68.600 264.995 C 33.840 264.995,19.679 265.042,37.131 265.100 M297.131 265.100 C 314.584 265.158,343.024 265.158,360.331 265.100 C 377.639 265.042,363.360 264.995,328.600 264.995 C 293.840 264.995,279.679 265.042,297.131 265.100 " stroke="none" fill="#ffead9" fill-rule="evenodd"></path><path id="path1" d="M134.662 3.100 C 134.494 3.371,178.178 3.370,239.200 3.096 C 251.850 3.040,233.546 2.950,198.524 2.897 C 163.502 2.844,134.764 2.935,134.662 3.100 M132.962 4.042 C 132.543 4.505,132.245 4.955,132.300 5.042 C 132.355 5.129,132.400 33.910,132.400 69.000 L 132.400 132.800 68.731 132.800 C 8.666 132.800,5.018 132.840,4.263 133.500 C 3.683 134.007,3.553 134.035,3.790 133.600 C 4.051 133.122,4.012 133.098,3.596 133.483 C 2.874 134.151,3.848 135.424,4.601 134.799 C 4.937 134.521,25.876 134.422,69.548 134.494 C 104.997 134.552,134.001 134.510,134.002 134.400 C 134.206 117.317,134.097 4.000,133.876 4.000 C 133.698 4.000,133.664 3.820,133.800 3.600 C 134.223 2.916,133.760 3.160,132.962 4.042 M262.631 4.350 C 262.497 4.567,262.570 4.858,262.793 4.996 C 263.389 5.364,263.356 132.484,262.760 133.080 C 262.103 133.737,263.857 135.417,264.576 134.820 C 264.948 134.511,283.717 134.417,329.714 134.493 C 389.048 134.591,394.275 134.548,393.665 133.958 C 393.299 133.604,392.745 133.410,392.434 133.526 C 392.074 133.660,391.974 133.565,392.159 133.266 C 392.382 132.906,377.417 132.819,328.425 132.898 L 264.400 133.000 264.350 69.100 C 264.322 33.955,264.278 4.977,264.250 4.705 C 264.187 4.087,262.960 3.818,262.631 4.350 M2.595 199.000 C 2.595 234.200,2.642 248.541,2.700 230.868 C 2.758 213.196,2.758 184.396,2.700 166.868 C 2.642 149.341,2.595 163.800,2.595 199.000 M3.372 263.888 C 3.411 264.157,3.598 264.517,3.786 264.688 C 3.974 264.860,3.996 264.730,3.834 264.400 C 3.573 263.867,3.600 263.867,4.070 264.400 C 4.537 264.929,12.202 264.992,69.000 264.933 C 104.420 264.897,133.174 264.957,132.898 265.068 C 132.108 265.383,132.179 393.319,132.969 393.974 C 133.314 394.261,133.620 394.291,133.767 394.054 C 133.930 393.789,134.134 281.318,134.003 263.800 C 134.001 263.535,111.948 263.400,68.650 263.400 C 17.424 263.400,3.316 263.506,3.372 263.888 M262.759 264.076 C 262.535 264.496,262.550 264.845,262.799 264.999 C 263.371 265.353,263.353 392.658,262.781 393.012 C 262.493 393.189,262.508 393.448,262.826 393.832 C 263.197 394.278,263.099 394.469,262.346 394.771 C 261.776 394.999,261.650 395.159,262.030 395.175 C 262.377 395.189,263.051 394.785,263.528 394.277 L 264.395 393.354 264.298 329.082 L 264.200 264.810 328.530 264.810 C 392.410 264.810,393.600 264.793,393.600 263.876 C 393.600 263.007,263.225 263.206,262.759 264.076 " stroke="none" fill="#ffe2cc" fill-rule="evenodd"></path></g></svg>